<svg width="16" height="16" viewBox="0 0 16 16" fill="none" xmlns="http://www.w3.org/2000/svg">
<path d="M7.99805 0.6875C3.96598 0.6875 0.685547 3.96793 0.685547 8C0.685547 12.0321 3.96598 15.3125 7.99805 15.3125C12.0301 15.3125 15.3105 12.0321 15.3105 8C15.3105 3.96793 12.0301 0.6875 7.99805 0.6875ZM11.8037 5.54926L7.07871 11.1743C7.02688 11.236 6.96239 11.2859 6.8896 11.3205C6.81681 11.3551 6.73743 11.3737 6.65684 11.375H6.64734C6.5685 11.375 6.49055 11.3584 6.41853 11.3263C6.34652 11.2942 6.28206 11.2473 6.22934 11.1887L4.20434 8.93867C4.15291 8.88413 4.1129 8.81985 4.08667 8.74962C4.06044 8.67939 4.04851 8.60463 4.05158 8.52973C4.05466 8.45482 4.07267 8.38129 4.10457 8.31345C4.13647 8.2456 4.18161 8.18482 4.23734 8.13468C4.29306 8.08453 4.35825 8.04602 4.42907 8.02143C4.49989 7.99683 4.57491 7.98664 4.64972 7.99146C4.72453 7.99627 4.79763 8.01599 4.86471 8.04945C4.93179 8.08292 4.99151 8.12945 5.04035 8.18633L6.63258 9.95539L10.9424 4.82574C11.0391 4.71397 11.1758 4.64474 11.3231 4.633C11.4705 4.62126 11.6165 4.66796 11.7296 4.76301C11.8428 4.85806 11.914 4.99382 11.9278 5.14095C11.9417 5.28807 11.8971 5.43474 11.8037 5.54926Z" fill="#27AE60"/>
</svg>
