<?xml version="1.0" encoding="UTF-8"?>
<svg id="Layer_1" data-name="Layer 1" xmlns="http://www.w3.org/2000/svg" xmlns:xlink="http://www.w3.org/1999/xlink" viewBox="0 0 600 300">
  <defs>
    <style>
      .cls-1 {
        fill: url(#linear-gradient);
      }

      .cls-2 {
        fill: #414143;
      }

      .cls-3 {
        fill: url(#linear-gradient-2);
      }
    </style>
    <linearGradient id="linear-gradient" x1="27.26" y1="161.17" x2="142.83" y2="86.39" gradientUnits="userSpaceOnUse">
      <stop offset="0" stop-color="#710000"/>
      <stop offset="1" stop-color="#f04d23"/>
    </linearGradient>
    <linearGradient id="linear-gradient-2" x1="33.28" y1="170.47" x2="148.85" y2="95.7" xlink:href="#linear-gradient"/>
  </defs>
  <g>
    <path class="cls-2" d="M196.31,117.74c3.93-3.93,8.66-5.89,14.19-5.89,3.96,0,7.53,1.08,10.69,3.25,3.16,2.17,5.56,5.05,7.21,8.64l-8.02,2.3c-2.17-4.08-5.46-6.13-9.87-6.17-3.33,0-6.11,1.16-8.33,3.48-2.23,2.32-3.34,5.18-3.34,8.58s1.11,6.25,3.34,8.56c2.22,2.3,5,3.45,8.33,3.45,4.41,0,7.65-1.96,9.71-5.89l8.13,2.19c-1.61,3.55-3.99,6.4-7.15,8.53-3.16,2.13-6.72,3.2-10.69,3.2-5.54,0-10.27-1.95-14.19-5.86-3.93-3.91-5.89-8.63-5.89-14.17s1.96-10.27,5.89-14.19Z"/>
    <path class="cls-2" d="M230.92,131.93c0-5.54,1.96-10.27,5.89-14.19,3.93-3.93,8.66-5.89,14.19-5.89s10.26,1.96,14.17,5.89c3.91,3.93,5.88,8.66,5.92,14.19v.17c0,5.42-1.94,10.08-5.83,13.97-3.96,3.93-8.71,5.89-14.25,5.89s-10.27-1.95-14.19-5.86c-3.93-3.91-5.89-8.63-5.89-14.17Zm8.42,0c0,3.4,1.12,6.28,3.37,8.64,2.21,2.36,4.97,3.53,8.3,3.53s6.11-1.18,8.33-3.53c2.22-2.36,3.34-5.24,3.34-8.64s-1.11-6.29-3.34-8.67c-2.23-2.37-5-3.56-8.33-3.56s-6.06,1.19-8.3,3.56c-2.24,2.38-3.37,5.26-3.37,8.67Z"/>
    <path class="cls-2" d="M275.3,151.51v-39.27h17.33c3.85,0,7.13,1.35,9.85,4.04,2.71,2.69,4.07,5.87,4.07,9.54,0,2.54-.72,4.9-2.16,7.07-1.44,2.17-3.34,3.72-5.69,4.66l8.42,13.97h-8.98l-7.8-12.9h-6.62v12.9h-8.42Zm17.33-20.2c1.61,0,2.97-.56,4.09-1.68s1.68-2.49,1.68-4.1-.56-2.96-1.68-4.07c-1.12-1.1-2.49-1.66-4.09-1.66h-8.92v11.5h8.92Z"/>
    <path class="cls-2" d="M311.59,151.51v-39.27h17.33c3.85,0,7.13,1.35,9.85,4.04,2.71,2.69,4.07,5.87,4.07,9.54s-1.34,6.89-4.01,9.45c-2.67,2.56-5.97,3.86-9.9,3.9l-8.86,.06v12.29h-8.47Zm8.47-19.8l8.3-.06c1.83,0,3.35-.6,4.54-1.8,1.2-1.2,1.8-2.64,1.8-4.32s-.59-3.01-1.77-4.1c-1.18-1.08-2.7-1.63-4.57-1.63l-8.3,.06v11.84Z"/>
    <path class="cls-2" d="M350.92,114.82c2.92-2.06,6.56-3.09,10.94-3.09,4.97,0,9.56,1.4,13.75,4.21v8.64c-4.9-3.25-9.5-4.88-13.8-4.88-2.1,0-3.76,.33-4.99,.98s-1.85,1.58-1.85,2.78c0,1.01,.6,1.81,1.79,2.38,1.2,.58,3.12,1.21,5.78,1.88,1.46,.38,2.62,.69,3.48,.95,.86,.26,1.96,.64,3.31,1.12,1.35,.49,2.43,1.03,3.25,1.63,.82,.6,1.64,1.32,2.47,2.16,.82,.84,1.43,1.83,1.82,2.97,.39,1.14,.59,2.42,.59,3.84,0,3.59-1.39,6.42-4.18,8.47-2.79,2.06-6.35,3.09-10.69,3.09-2.62,0-5.11-.34-7.46-1.01-2.36-.67-5.05-1.7-8.08-3.09v-8.64c5.46,3.18,10.68,4.77,15.65,4.77,2.09,0,3.67-.33,4.74-.98,1.07-.65,1.6-1.56,1.6-2.72,0-1.08-.54-1.95-1.63-2.61-1.08-.65-2.71-1.26-4.88-1.82-4.49-1.23-7.39-2.15-8.7-2.75-4.82-2.28-7.27-5.65-7.35-10.1,0-3.37,1.48-6.1,4.43-8.19Z"/>
    <path class="cls-2" d="M380.82,112.24h31.87v7.85h-11.5v31.42h-8.42v-31.42h-11.95v-7.85Z"/>
    <path class="cls-2" d="M417.45,151.51v-39.27h17.33c3.85,0,7.13,1.35,9.85,4.04,2.71,2.69,4.07,5.87,4.07,9.54,0,2.54-.72,4.9-2.16,7.07-1.44,2.17-3.34,3.72-5.69,4.66l8.42,13.97h-8.98l-7.8-12.9h-6.62v12.9h-8.42Zm17.33-20.2c1.61,0,2.97-.56,4.09-1.68s1.68-2.49,1.68-4.1-.56-2.96-1.68-4.07c-1.12-1.1-2.49-1.66-4.09-1.66h-8.92v11.5h8.92Z"/>
    <path class="cls-2" d="M453.75,143.66v-31.42h28.44v7.8h-20.03v8.02h17.78v7.63h-17.78v8.02h20.03v7.8h-23.84l-4.6-7.85Z"/>
    <path class="cls-2" d="M487.52,143.66v-31.42h28.44v7.8h-20.03v8.02h17.78v7.63h-17.78v8.02h20.03v7.8h-23.84l-4.6-7.85Z"/>
    <path class="cls-2" d="M520.17,112.24h31.87v7.85h-11.5v31.42h-8.42v-31.42h-11.95v-7.85Z"/>
  </g>
  <g>
    <path class="cls-2" d="M194.31,165.77c2.86-2.86,6.33-4.29,10.4-4.29,2.97,0,5.61,.79,7.93,2.37,2.31,1.58,4.05,3.71,5.2,6.38l-4.71,1.28c-.77-1.65-1.9-2.96-3.38-3.92-1.49-.96-3.17-1.44-5.04-1.44-2.78,0-5.1,.98-6.98,2.93-1.87,1.95-2.81,4.35-2.81,7.18s.93,5.18,2.79,7.12c1.86,1.94,4.19,2.91,7,2.91,2.2,0,4.13-.65,5.78-1.94s2.75-3.07,3.3-5.33l-9,.04-.08-4.21h13.87v1.82c0,4.1-1.31,7.51-3.94,10.24-2.63,2.72-5.94,4.09-9.93,4.09s-7.54-1.44-10.4-4.33-4.29-6.36-4.29-10.4,1.43-7.6,4.29-10.49Z"/>
    <path class="cls-2" d="M224.73,190.66l-2.68-4.58v-24.31h4.87v24.35h14.04v4.54h-16.22Z"/>
    <path class="cls-2" d="M245.82,165.77c2.86-2.86,6.33-4.29,10.4-4.29s7.46,1.45,10.32,4.33c2.86,2.89,4.3,5.36,4.31,7.41,.01,2.05,.02,3.1,.02,3.16,0,4.02-1.42,7.44-4.25,10.28-2.86,2.89-6.33,4.33-10.4,4.33s-7.54-1.44-10.4-4.33-4.29-6.36-4.29-10.4,1.43-7.6,4.29-10.49Zm.62,10.49c0,2.81,.93,5.19,2.79,7.16s4.19,2.95,7,2.95,5.1-.98,6.96-2.95,2.79-4.36,2.79-7.16-.94-5.24-2.81-7.22c-1.87-1.98-4.18-2.97-6.94-2.97s-5.1,.99-6.98,2.97c-1.87,1.98-2.81,4.39-2.81,7.22Z"/>
    <path class="cls-2" d="M274.55,161.77h13.54c2.7,0,4.84,.71,6.42,2.13,1.58,1.42,2.37,3.23,2.37,5.43,0,1.46-.34,2.77-1.03,3.92-.69,1.16-1.62,2.04-2.81,2.64,1.62,.61,2.86,1.52,3.71,2.75,.85,1.23,1.28,2.64,1.28,4.23,0,2.31-.83,4.19-2.48,5.63-1.65,1.44-3.89,2.17-6.73,2.17h-11.68l-2.6-4.42v-24.48Zm13.25,12.38c1.32,0,2.39-.38,3.2-1.13s1.22-1.73,1.22-2.91-.39-2.06-1.18-2.81-1.82-1.11-3.12-1.11h-8.63v7.97h8.5Zm-8.5,4v8.09h9.25c1.38,0,2.47-.37,3.28-1.11,.81-.74,1.22-1.73,1.22-2.97s-.43-2.21-1.3-2.93c-.87-.71-1.97-1.07-3.32-1.07h-9.12Z"/>
    <path class="cls-2" d="M299.48,190.66l11.43-28.9h5.08l11.64,28.9h-5.08l-2.44-6.19h-13.17l-2.39,6.19h-5.08Zm9-10.49h9.99l-5.04-12.67-4.95,12.67Zm23.69,10.49l-2.23-5.66v-23.24h4.91v24.35h14.03v4.54h-16.72Z"/>
    <path class="cls-2" d="M366.77,165.77c2.86-2.86,6.33-4.29,10.4-4.29,2.97,0,5.61,.79,7.93,2.37,2.31,1.58,4.05,3.71,5.2,6.38l-4.71,1.28c-.77-1.65-1.9-2.96-3.38-3.92-1.49-.96-3.17-1.44-5.04-1.44-2.78,0-5.1,.98-6.98,2.93-1.87,1.95-2.81,4.35-2.81,7.18s.93,5.18,2.79,7.12c1.86,1.94,4.19,2.91,7,2.91,2.2,0,4.13-.65,5.78-1.94s2.75-3.07,3.3-5.33l-9,.04-.08-4.21h13.87v1.82c0,4.1-1.31,7.51-3.94,10.24-2.63,2.72-5.94,4.09-9.93,4.09s-7.54-1.44-10.4-4.33-4.29-6.36-4.29-10.4,1.43-7.6,4.29-10.49Z"/>
    <path class="cls-2" d="M399.38,161.77v12.22h14.65v-12.22h4.91v28.9h-4.91v-12.26h-14.65v12.26h-4.87v-28.9h4.87Z"/>
  </g>
  <g>
    <path class="cls-1" d="M83.04,88.82v78.45c-20.53-1.31-36.76-18.37-36.76-39.23s16.24-37.91,36.76-39.22Z"/>
    <path class="cls-2" d="M132.05,211.27v-78.45c20.53,1.31,36.76,18.37,36.76,39.23s-16.24,37.91-36.76,39.22Z"/>
    <path class="cls-3" d="M168.81,128.05h-39.86c-21.71,0-39.32-17.6-39.32-39.32h0s39.86,0,39.86,0c21.71,0,39.32,17.6,39.32,39.32h0Z"/>
    <path class="cls-2" d="M125.46,211.27h-39.86c-21.71,0-39.32-17.6-39.32-39.32h0s39.86,0,39.86,0c21.71,0,39.32,17.6,39.32,39.32h0Z"/>
  </g>
</svg>