<svg width="617" height="564" viewBox="0 0 617 564" fill="none" xmlns="http://www.w3.org/2000/svg">
<g clip-path="url(#clip0_515_7397)">
<path d="M381.363 428.282L363.252 422.896C363.073 422.834 362.92 422.713 362.818 422.553C362.717 422.392 362.673 422.202 362.694 422.014L363.809 414.678C362.571 413.926 361.377 413.104 360.233 412.217L353.778 415.885C353.635 416.006 353.454 416.072 353.267 416.072C353.08 416.072 352.899 416.006 352.756 415.885L341.1 400.702C340.975 400.552 340.907 400.363 340.907 400.168C340.907 399.973 340.975 399.784 341.1 399.634L346.301 394.387C345.738 393.04 345.257 391.66 344.862 390.255L337.478 389.419C337.276 389.396 337.092 389.296 336.962 389.14C336.833 388.985 336.768 388.785 336.781 388.583C336.804 388.37 336.909 388.174 337.073 388.035C337.238 387.897 337.449 387.827 337.663 387.84L345.558 388.769C345.719 388.774 345.874 388.831 345.999 388.932C346.125 389.032 346.215 389.171 346.255 389.326C346.821 391.012 347.504 392.657 348.298 394.248C348.386 394.378 348.433 394.532 348.433 394.689C348.433 394.846 348.386 395 348.298 395.13L343.236 400.284L353.824 414.213L360.14 410.685C360.271 410.597 360.424 410.55 360.581 410.55C360.739 410.55 360.892 410.597 361.023 410.685C362.392 411.774 363.835 412.766 365.342 413.656C365.479 413.732 365.589 413.849 365.655 413.991C365.722 414.132 365.742 414.292 365.713 414.446L364.598 421.596L380.806 426.518L383.825 419.971C383.868 419.815 383.969 419.681 384.106 419.595C384.244 419.509 384.408 419.477 384.568 419.507C386.3 419.596 388.036 419.596 389.769 419.507C389.927 419.488 390.088 419.519 390.228 419.593C390.369 419.668 390.484 419.783 390.558 419.924L393.902 426.332L410.342 420.528L409.041 413.238C409.014 413.089 409.03 412.936 409.088 412.796C409.146 412.656 409.242 412.536 409.367 412.449C410.819 411.481 412.2 410.41 413.5 409.245C413.634 409.168 413.786 409.127 413.941 409.127C414.096 409.127 414.248 409.168 414.382 409.245L420.884 412.495L430.775 398.102L425.435 393.459C425.347 393.328 425.3 393.175 425.3 393.018C425.3 392.86 425.347 392.707 425.435 392.576C425.76 391.694 425.992 390.905 426.271 390.116C426.549 389.326 426.689 388.491 426.921 387.608C426.95 387.451 427.029 387.308 427.146 387.199C427.263 387.09 427.412 387.022 427.571 387.005L434.537 385.38L434.073 367.921L426.874 367.132C426.715 367.115 426.566 367.047 426.449 366.938C426.332 366.829 426.253 366.686 426.224 366.529C425.733 364.855 425.144 363.211 424.459 361.607C424.381 361.481 424.34 361.337 424.34 361.189C424.34 361.041 424.381 360.896 424.459 360.771L429.568 355.617L418.933 341.688L412.617 345.263C412.487 345.351 412.333 345.398 412.176 345.398C412.019 345.398 411.865 345.351 411.735 345.263C410.374 344.185 408.947 343.192 407.462 342.291C407.325 342.216 407.215 342.099 407.149 341.957C407.082 341.815 407.062 341.656 407.091 341.502L408.67 333.748C408.724 333.548 408.846 333.373 409.016 333.254C409.186 333.135 409.392 333.08 409.599 333.098C409.701 333.109 409.8 333.141 409.89 333.192C409.979 333.244 410.057 333.313 410.118 333.396C410.179 333.479 410.222 333.574 410.245 333.674C410.267 333.775 410.269 333.879 410.249 333.98L409.134 341.316C410.342 342.059 411.549 342.895 412.71 343.777L419.165 340.156C419.303 340.025 419.486 339.952 419.676 339.952C419.866 339.952 420.049 340.025 420.187 340.156L431.658 355.153C431.779 355.296 431.845 355.477 431.845 355.664C431.845 355.851 431.779 356.032 431.658 356.174L426.456 361.421C427.012 362.771 427.493 364.15 427.896 365.554L435.28 366.389C435.465 366.411 435.637 366.497 435.764 366.633C435.892 366.769 435.967 366.946 435.977 367.132L436.441 385.983C436.446 386.176 436.384 386.365 436.265 386.517C436.147 386.67 435.979 386.776 435.791 386.819L428.453 388.026C428.317 388.735 428.131 389.433 427.896 390.116C427.896 390.766 427.478 391.462 427.246 392.159L432.679 397.173C432.81 397.311 432.883 397.494 432.883 397.684C432.883 397.874 432.81 398.057 432.679 398.195L421.998 413.749C421.855 413.87 421.674 413.937 421.487 413.937C421.3 413.937 421.119 413.87 420.976 413.749L414.336 410.452C413.245 411.403 412.097 412.287 410.899 413.099L412.385 420.342C412.42 420.532 412.389 420.729 412.296 420.898C412.203 421.067 412.054 421.199 411.874 421.271L394.088 427.539C393.902 427.603 393.7 427.596 393.519 427.518C393.339 427.441 393.194 427.3 393.113 427.121L389.722 420.574C388.19 420.574 386.75 420.574 385.357 420.574L382.292 427.307C382.315 427.436 382.307 427.569 382.269 427.694C382.232 427.82 382.165 427.935 382.074 428.029C381.984 428.124 381.872 428.197 381.749 428.241C381.625 428.284 381.493 428.299 381.363 428.282Z" fill="#102B46"/>
<path d="M522.82 500.808L527 541.435L502.108 547.657L491.009 530.756L487.387 500.808H522.82Z" fill="#AB5B44"/>
<path d="M557.789 507.587L567.077 541.946L602.232 536.56L592.619 500.808L557.789 507.587Z" fill="#AB5B44"/>
<path d="M183.158 561.4H118.143V534.888L137.09 536.188C139.919 531.956 144.116 528.825 148.979 527.32C157.626 527.054 166.103 529.77 172.985 535.011C179.868 540.253 184.739 547.701 186.781 556.107C186.984 556.696 187.047 557.325 186.964 557.943C186.88 558.56 186.654 559.15 186.302 559.665C185.95 560.179 185.482 560.604 184.936 560.905C184.39 561.207 183.781 561.376 183.158 561.4Z" fill="#1E1E1E"/>
<path d="M148.003 490.082L111.455 495.747L118.467 534.981L137.043 536.931C137.043 536.931 138.112 534.099 149.304 527.645L148.003 490.082Z" fill="#FF954D"/>
<path d="M135.373 542.827C135.325 542.822 135.279 542.807 135.238 542.782C135.196 542.758 135.161 542.724 135.135 542.684C135.108 542.644 135.091 542.599 135.084 542.551C135.077 542.504 135.08 542.455 135.094 542.409C136.162 531.823 149.026 527.133 149.026 527.087C149.095 527.041 149.176 527.017 149.258 527.017C149.341 527.017 149.422 527.041 149.49 527.087C149.54 527.146 149.567 527.22 149.567 527.296C149.567 527.372 149.54 527.446 149.49 527.505C149.49 527.505 137.184 532.148 136.116 542.27C136.19 542.369 136.221 542.492 136.204 542.614C136.187 542.736 136.121 542.846 136.023 542.92C135.924 542.994 135.801 543.026 135.679 543.008C135.557 542.991 135.447 542.926 135.373 542.827Z" fill="#102B46"/>
<path d="M158.499 540.134C158.456 540.155 158.408 540.166 158.36 540.166C158.312 540.166 158.264 540.155 158.221 540.134C157.331 538.288 156.843 536.274 156.787 534.226C156.731 532.177 157.109 530.14 157.896 528.248C157.926 528.217 157.962 528.193 158.002 528.176C158.042 528.159 158.085 528.15 158.128 528.15C158.171 528.15 158.214 528.159 158.254 528.176C158.294 528.193 158.33 528.217 158.36 528.248C158.413 528.314 158.442 528.396 158.442 528.48C158.442 528.564 158.413 528.646 158.36 528.712C157.599 530.504 157.23 532.438 157.279 534.384C157.327 536.33 157.79 538.243 158.639 539.995C158.691 540.061 158.72 540.143 158.72 540.227C158.72 540.312 158.691 540.393 158.639 540.459L158.499 540.134Z" fill="#102B46"/>
<path d="M154.831 536.513C154.775 536.44 154.744 536.35 154.744 536.258C154.744 536.165 154.775 536.075 154.831 536.002C155.97 534.354 157.461 532.978 159.195 531.975C160.93 530.971 162.865 530.364 164.862 530.198C164.933 530.225 164.995 530.272 165.038 530.334C165.081 530.397 165.105 530.471 165.105 530.546C165.105 530.622 165.081 530.696 165.038 530.759C164.995 530.821 164.933 530.868 164.862 530.895C162.964 531.048 161.123 531.623 159.476 532.579C157.829 533.535 156.416 534.848 155.342 536.42C155.319 536.465 155.287 536.504 155.246 536.534C155.206 536.564 155.159 536.585 155.11 536.594C155.06 536.603 155.009 536.6 154.961 536.586C154.913 536.572 154.868 536.547 154.831 536.513Z" fill="#102B46"/>
<path d="M167.183 544.452C167.096 544.452 167.014 544.418 166.953 544.357C166.892 544.296 166.858 544.213 166.858 544.127C166.519 542.116 166.626 540.054 167.172 538.088C167.717 536.123 168.688 534.301 170.015 532.752C170.041 532.713 170.075 532.682 170.116 532.66C170.156 532.638 170.202 532.627 170.248 532.627C170.294 532.627 170.339 532.638 170.379 532.66C170.42 532.682 170.454 532.713 170.48 532.752C170.545 532.821 170.582 532.912 170.582 533.007C170.582 533.102 170.545 533.193 170.48 533.262C169.233 534.745 168.318 536.478 167.797 538.344C167.277 540.21 167.162 542.167 167.461 544.081C167.476 544.173 167.455 544.267 167.403 544.344C167.352 544.421 167.273 544.476 167.183 544.499V544.452Z" fill="#102B46"/>
<path d="M164.816 539.856C164.726 539.888 164.627 539.888 164.537 539.856C164.506 539.826 164.482 539.79 164.465 539.75C164.448 539.71 164.439 539.667 164.439 539.624C164.439 539.581 164.448 539.538 164.465 539.498C164.482 539.458 164.506 539.422 164.537 539.392C166.103 538.16 167.927 537.298 169.874 536.872C171.82 536.445 173.838 536.466 175.775 536.931C175.819 536.942 175.86 536.961 175.896 536.988C175.932 537.016 175.961 537.05 175.983 537.089C176.005 537.128 176.018 537.172 176.023 537.216C176.027 537.261 176.022 537.306 176.008 537.349C176.01 537.395 176.002 537.441 175.982 537.482C175.963 537.524 175.933 537.56 175.897 537.588C175.86 537.615 175.817 537.634 175.771 537.64C175.726 537.647 175.679 537.643 175.636 537.628C173.789 537.176 171.863 537.15 170.005 537.552C168.146 537.955 166.404 538.774 164.909 539.949L164.816 539.856Z" fill="#102B46"/>
<path d="M162.214 530.43C161.936 530.43 155.341 525.137 155.481 521.422C155.503 520.927 155.652 520.445 155.912 520.023C156.172 519.601 156.535 519.251 156.967 519.008C157.45 518.67 158.026 518.489 158.615 518.489C159.205 518.489 159.781 518.67 160.264 519.008C162.772 520.726 163.236 526.808 162.772 530.43C162.792 530.473 162.803 530.521 162.803 530.569C162.803 530.617 162.792 530.665 162.772 530.709C162.729 530.733 162.681 530.746 162.632 530.746C162.584 530.746 162.535 530.733 162.493 530.709L162.214 530.43ZM157.57 519.611C157.227 519.787 156.938 520.053 156.734 520.38C156.529 520.707 156.417 521.083 156.409 521.469C156.409 524.255 161.053 528.248 162.4 529.501C162.772 525.508 162.029 520.633 160.125 519.379C159.698 519.11 159.195 518.987 158.693 519.029C158.19 519.071 157.714 519.275 157.338 519.611H157.57Z" fill="#102B46"/>
<path d="M162.121 530.244C162.099 530.193 162.088 530.138 162.088 530.082C162.088 530.026 162.099 529.971 162.121 529.919C162.121 529.641 167.972 523.372 171.409 523.93C171.893 524.016 172.346 524.229 172.721 524.547C173.096 524.865 173.38 525.277 173.545 525.74C173.884 526.24 174.066 526.831 174.066 527.435C174.066 528.039 173.884 528.63 173.545 529.13C171.687 531.498 165.743 531.359 162.307 530.476C162.259 530.455 162.218 530.423 162.186 530.383C162.153 530.342 162.131 530.295 162.121 530.244ZM171.409 524.626C168.669 524.208 164.35 528.526 163.003 529.966C166.811 530.755 171.548 530.476 172.988 528.666C173.257 528.277 173.402 527.815 173.402 527.342C173.402 526.869 173.257 526.408 172.988 526.019C172.774 525.51 172.399 525.086 171.92 524.812L171.409 524.626Z" fill="#102B46"/>
<path d="M64.087 563.397L0 553.135L4.17959 526.948L22.7555 531.266C26.2423 527.543 30.8944 525.119 35.9445 524.395C44.492 525.541 52.386 529.59 58.3041 535.862C64.2221 542.134 67.8049 550.248 68.4524 558.846C68.5405 559.448 68.49 560.062 68.3047 560.642C68.1193 561.221 67.8041 561.75 67.383 562.189C66.9618 562.628 66.446 562.965 65.8748 563.174C65.3036 563.384 64.6921 563.46 64.087 563.397Z" fill="#1E1E1E"/>
<path d="M48.0189 488.967L13.2355 487.156L4.17969 526.948L22.1984 531.823C22.1984 531.823 23.7309 529.223 35.8517 524.394L48.0189 488.967Z" fill="#FF954D"/>
<path d="M19.8295 537.441C19.7768 537.375 19.748 537.293 19.748 537.209C19.748 537.124 19.7768 537.043 19.8295 536.977C22.5695 526.715 35.7584 524.069 35.8977 524.069C35.9896 524.055 36.0836 524.075 36.1609 524.127C36.2383 524.178 36.2936 524.257 36.3157 524.347C36.3157 524.347 36.3157 524.719 36.0371 524.719C35.7584 524.719 23.1268 527.319 20.4797 537.162C20.4687 537.232 20.4401 537.298 20.3967 537.354C20.3533 537.41 20.2965 537.453 20.2315 537.481C20.1666 537.509 20.0957 537.52 20.0254 537.513C19.9551 537.506 19.8877 537.481 19.8295 537.441Z" fill="#102B46"/>
<path d="M43.096 538.603C42.506 536.637 42.3417 534.569 42.614 532.536C42.8863 530.502 43.5888 528.55 44.6749 526.809C44.7408 526.756 44.8227 526.728 44.9071 526.728C44.9915 526.728 45.0734 526.756 45.1393 526.809C45.1702 526.839 45.1947 526.875 45.2115 526.915C45.2283 526.955 45.2369 526.998 45.2369 527.041C45.2369 527.084 45.2283 527.127 45.2115 527.167C45.1947 527.207 45.1702 527.243 45.1393 527.273C44.0858 528.915 43.4029 530.767 43.1382 532.699C42.8735 534.632 43.0334 536.599 43.6068 538.463C43.6559 538.522 43.6829 538.596 43.6829 538.672C43.6829 538.749 43.6559 538.823 43.6068 538.881L43.096 538.603Z" fill="#102B46"/>
<path d="M40.078 534.331C40.0471 534.3 40.0226 534.264 40.0059 534.224C39.9891 534.184 39.9805 534.142 39.9805 534.098C39.9805 534.055 39.9891 534.012 40.0059 533.973C40.0226 533.933 40.0471 533.897 40.078 533.866C41.4503 532.402 43.1375 531.27 45.0121 530.554C46.8867 529.838 48.8996 529.557 50.8985 529.734C50.9888 529.745 51.0718 529.789 51.1317 529.858C51.1916 529.926 51.2243 530.014 51.2236 530.105C51.2122 530.196 51.1681 530.279 51.0996 530.338C51.0312 530.398 50.9431 530.431 50.8521 530.43C48.952 530.276 47.0413 530.546 45.2583 531.22C43.4752 531.895 41.8645 532.957 40.5424 534.331C40.4737 534.376 40.3929 534.401 40.3102 534.401C40.2276 534.401 40.1468 534.376 40.078 534.331Z" fill="#102B46"/>
<path d="M51.0833 544.128C51.0054 544.101 50.9373 544.051 50.8877 543.985C50.8381 543.918 50.8092 543.839 50.8047 543.757C50.802 541.713 51.2404 539.692 52.0899 537.833C52.9394 535.974 54.1801 534.32 55.7273 532.985C55.8005 532.928 55.8903 532.897 55.9827 532.897C56.0752 532.897 56.165 532.928 56.2382 532.985C56.2947 533.058 56.3253 533.148 56.3253 533.24C56.3253 533.332 56.2947 533.422 56.2382 533.495C54.775 534.764 53.6027 536.333 52.8013 538.096C51.9998 539.859 51.5881 541.774 51.5942 543.71C51.5841 543.805 51.5417 543.894 51.4741 543.962C51.4065 544.029 51.3177 544.072 51.2227 544.082L51.0833 544.128Z" fill="#102B46"/>
<path d="M49.4129 539.206C49.3693 539.226 49.3217 539.237 49.2736 539.237C49.2254 539.237 49.1778 539.226 49.1342 539.206C49.0815 539.14 49.0527 539.058 49.0527 538.974C49.0527 538.889 49.0815 538.807 49.1342 538.741C50.8838 537.781 52.8262 537.224 54.8191 537.111C56.812 536.999 58.8048 537.334 60.6513 538.091C60.6822 538.122 60.7068 538.158 60.7235 538.198C60.7403 538.237 60.7489 538.28 60.7489 538.323C60.7489 538.367 60.7403 538.41 60.7235 538.449C60.7068 538.489 60.6822 538.525 60.6513 538.556C60.5826 538.602 60.5018 538.626 60.4191 538.626C60.3365 538.626 60.2557 538.602 60.1869 538.556C58.4469 537.805 56.5577 537.465 54.6653 537.562C52.7729 537.659 50.928 538.189 49.2736 539.113L49.4129 539.206Z" fill="#102B46"/>
<path d="M48.3431 529.316C48.1109 529.038 42.3524 522.955 43.0954 519.334C43.2083 518.841 43.4412 518.384 43.7734 518.003C44.1056 517.623 44.5268 517.33 44.9995 517.151C45.5104 516.87 46.0949 516.75 46.6754 516.808C47.2559 516.866 47.8051 517.099 48.2503 517.476C50.4329 519.566 49.9685 525.648 48.9004 529.131C48.9249 529.173 48.9377 529.221 48.9377 529.27C48.9377 529.319 48.9249 529.367 48.9004 529.409H48.5753L48.3431 529.316ZM45.2317 517.801C44.8673 517.931 44.5429 518.153 44.2905 518.447C44.0381 518.74 43.8663 519.093 43.792 519.473C43.2348 522.212 47.1357 526.902 48.436 528.341C49.4577 524.487 49.4577 519.566 47.7859 518.034C47.4091 517.783 46.9682 517.645 46.5156 517.636C46.0629 517.628 45.6173 517.75 45.2317 517.987V517.801Z" fill="#102B46"/>
<path d="M48.2512 529.316C48.2158 529.21 48.2158 529.096 48.2512 528.991C48.5298 528.991 55.0314 523.512 58.4679 524.626C58.9342 524.78 59.3516 525.054 59.6778 525.421C60.004 525.788 60.2275 526.235 60.3255 526.716C60.5543 527.279 60.6102 527.898 60.4861 528.493C60.3621 529.088 60.0637 529.633 59.6289 530.059C57.3998 532.102 51.5484 530.987 48.2976 529.594C48.2502 529.51 48.2338 529.411 48.2512 529.316ZM58.4215 525.276C55.7744 524.44 50.8518 528.016 49.1335 529.176C52.7558 530.616 57.4927 531.08 59.1645 529.501C59.6313 528.926 59.8539 528.19 59.7844 527.452C59.715 526.714 59.359 526.033 58.793 525.555C58.6895 525.425 58.5637 525.315 58.4215 525.23V525.276Z" fill="#102B46"/>
<path d="M133.098 262.755L148.33 403.813L151.72 522.677L103.005 528.341L99.6608 415.235L64.9238 265.866L133.098 262.755Z" fill="#1E1E1E"/>
<path d="M93.1118 268.372L33.3438 279.702C35.4427 273.229 38.0355 266.927 41.0992 260.851L90.0933 267.722L93.1118 268.372Z" fill="#0A0E11"/>
<path d="M135.279 279.702L93.1111 329.012L86.0987 383.012C85.1769 394.423 83.2657 405.733 80.3866 416.813L54.3338 524.673L3.25 518.684L26.7486 418.299C28.3867 411.24 29.1047 403.999 28.8848 396.755L26.6557 321.397C26.691 307.204 28.9474 293.105 33.343 279.609C35.4328 273.155 43.4205 251.75 46.4855 245.668L132.074 257.044L135.279 279.702Z" fill="#1E1E1E"/>
<path d="M106.486 133.165C109.18 145.98 103.979 171.378 117.26 174.953C130.542 178.528 138.483 153.827 146.796 144.262L152.88 146.816C148.402 144.678 143.739 142.953 138.948 141.662L119.443 136.369L116.517 135.579C113.233 134.546 109.881 133.739 106.486 133.165Z" fill="#FF954D"/>
<path d="M149.35 285.181L19.5508 274.734C19.5508 274.734 60.4179 147.513 107.322 133.305C108.065 136.833 108.762 139.991 109.458 143.102C110.112 146.281 111.635 149.217 113.857 151.583C116.08 153.949 118.915 155.652 122.047 156.504C125.18 157.355 128.488 157.322 131.602 156.407C134.717 155.491 137.517 153.731 139.691 151.32C141.92 148.906 144.056 146.445 146.285 143.845L156.27 148.256C148.839 161.442 152.88 179.968 152.88 194.269L149.35 285.181Z" fill="#FED227"/>
<path d="M170.434 98.2025L179.722 126.479C168.175 129.361 156.202 130.132 144.381 128.754L115.635 117.704L119.443 89.8449L153.019 84.041L170.434 98.2025Z" fill="#010101"/>
<path d="M120.326 80.4651C120.326 80.4651 107.509 109.856 124.088 114.499C126.456 115.196 124.088 127.593 126.596 128.429C137.648 132.514 147.168 117.331 147.679 100.57C148.283 81.3937 131.1 62.8212 120.326 80.4651Z" fill="#010101"/>
<path d="M128.685 112.317C128.685 112.317 144.382 129.125 167.184 106.792C169.58 104.366 171.336 101.382 172.292 98.1092C177.261 81.8119 165.141 70.0184 144.428 71.2256C124.552 72.3863 110.945 98.945 128.685 112.317Z" fill="#010101"/>
<path d="M124.924 154.941C121.296 153.98 118.193 151.627 116.289 148.394C114.385 145.16 113.833 141.306 114.753 137.668L122.787 104.517L149.815 111.435L141.828 144.54C141.413 146.34 140.645 148.039 139.568 149.539C138.491 151.039 137.126 152.31 135.553 153.278C133.98 154.246 132.23 154.891 130.405 155.177C128.58 155.462 126.717 155.382 124.924 154.941Z" fill="#FF954D"/>
<path d="M140.481 135.625C137.278 134.477 134.355 132.662 131.905 130.301C129.456 127.94 127.535 125.086 126.27 121.928C126.22 121.852 126.193 121.764 126.193 121.673C126.193 121.582 126.22 121.493 126.27 121.417C126.318 121.395 126.371 121.384 126.424 121.384C126.477 121.384 126.53 121.395 126.578 121.417C126.627 121.439 126.67 121.471 126.705 121.511C126.74 121.551 126.766 121.599 126.781 121.65C126.781 121.65 132.028 134.929 143.731 135.3C143.784 135.3 143.837 135.311 143.885 135.332C143.933 135.354 143.977 135.386 144.012 135.425C144.047 135.465 144.073 135.511 144.089 135.562C144.105 135.612 144.109 135.666 144.103 135.718C144.103 135.829 144.059 135.935 143.98 136.014C143.902 136.092 143.796 136.136 143.685 136.136C142.602 136.074 141.529 135.903 140.481 135.625Z" fill="#102B46"/>
<path d="M122.463 100.152C122.463 100.152 123.113 131.308 142.525 135.069C161.937 138.83 171.968 99.8738 170.9 90.959C169.832 82.0442 151.209 67.0469 133.005 78.144C122.649 84.4586 122.463 100.152 122.463 100.152Z" fill="#FF954D"/>
<path d="M146.565 120.303C147.784 122.029 149.501 123.342 151.488 124.064C151.701 124.143 151.885 124.286 152.015 124.472C152.145 124.659 152.214 124.881 152.214 125.109C152.214 125.336 152.145 125.558 152.015 125.745C151.885 125.932 151.701 126.074 151.488 126.153C149.073 127.036 145.915 126.478 145.497 120.721C145.49 120.594 145.523 120.468 145.592 120.361C145.661 120.254 145.761 120.172 145.88 120.125C145.998 120.079 146.128 120.071 146.251 120.103C146.374 120.135 146.484 120.205 146.565 120.303Z" fill="#010101"/>
<path d="M170.062 101.127C166.486 91.8411 160.774 98.1557 156.13 90.1231C151.486 82.0905 149.907 74.2901 153.251 72.1078C156.595 69.9255 164.304 74.7544 169.041 82.787C173.777 90.8196 173.22 99.2236 170.062 101.127Z" fill="#010101"/>
<path d="M123.577 106.792C125.971 105.511 128 103.641 129.471 101.358C130.942 99.0751 131.806 96.455 131.982 93.7452C132.05 92.8458 131.822 91.9489 131.332 91.1914C129.056 87.7091 122.926 90.6343 119.025 95.8346C114.614 102.149 116.518 110.368 123.577 106.792Z" fill="#010101"/>
<path d="M125.387 96.5773C130.594 100.443 136.868 102.607 143.351 102.773C149.835 102.94 156.211 101.1 161.61 97.5059C163.661 96.2555 165.281 94.4088 166.254 92.2128C170.898 81.58 157.895 67.9757 142.709 66.3041C125.619 64.5397 110.619 84.6445 125.387 96.5773Z" fill="#010101"/>
<path d="M155.713 120.721C156.735 120.721 159.521 121.464 160.357 119.421C160.523 118.672 160.407 117.887 160.029 117.219C159.652 116.55 159.041 116.045 158.314 115.799V110.042C158.314 109.956 158.279 109.873 158.218 109.812C158.157 109.751 158.075 109.717 157.989 109.717C157.906 109.727 157.829 109.764 157.77 109.823C157.711 109.882 157.673 109.959 157.663 110.042V115.985C157.639 116.036 157.626 116.091 157.626 116.148C157.626 116.204 157.639 116.259 157.663 116.31C157.663 116.31 160.218 117.332 159.568 119.189C158.917 121.046 155.527 120.025 155.481 120.025C155.459 119.996 155.431 119.972 155.399 119.956C155.367 119.94 155.331 119.932 155.295 119.932C155.259 119.932 155.223 119.94 155.191 119.956C155.159 119.972 155.131 119.996 155.109 120.025C155.067 120.086 155.045 120.159 155.045 120.233C155.045 120.308 155.067 120.381 155.109 120.442L155.713 120.721Z" fill="#010101"/>
<path d="M161.658 111.017C160.543 112.596 163.005 114.407 164.119 112.782C165.234 111.156 162.819 109.346 161.658 111.017Z" fill="#010101"/>
<path d="M151.162 107.256C150.047 108.881 152.509 110.645 153.623 109.067C154.738 107.488 152.323 105.631 151.162 107.256Z" fill="#010101"/>
<path d="M130.542 101.36C128.684 98.5739 123.808 92.5378 119.675 97.5988C115.542 102.66 123.251 109.903 125.898 111.853L130.542 101.36Z" fill="#FF954D"/>
<path d="M127.291 104.238C127.197 104.201 127.116 104.138 127.058 104.055C127 103.972 126.968 103.874 126.966 103.774C126.966 102.542 126.477 101.361 125.606 100.49C124.735 99.6197 123.554 99.1305 122.322 99.1305C122.187 99.1305 122.057 99.0767 121.961 98.9809C121.865 98.8852 121.811 98.7552 121.811 98.6198C121.804 98.5509 121.812 98.4813 121.835 98.416C121.858 98.3507 121.896 98.2914 121.945 98.2424C121.994 98.1935 122.053 98.1561 122.118 98.133C122.184 98.1099 122.253 98.1017 122.322 98.109C123.772 98.1448 125.152 98.7398 126.174 99.7697C127.195 100.799 127.778 102.184 127.802 103.634C127.793 103.772 127.737 103.901 127.645 104.003C127.552 104.104 127.427 104.171 127.291 104.192V104.238Z" fill="#102B46"/>
<path d="M121.811 108.185C121.811 108.185 120.464 112.178 124.458 121.371C100.356 120.025 94.5042 93.0945 94.7828 86.4084L121.997 78.0508C121.997 78.0508 112.709 102.799 121.811 108.185Z" fill="#010101"/>
<path d="M144.661 113.431C144.679 114.024 144.871 114.598 145.214 115.082C145.556 115.566 146.034 115.938 146.587 116.152C147.14 116.367 147.744 116.413 148.323 116.287C148.902 116.16 149.431 115.865 149.844 115.44C150.257 115.014 150.536 114.477 150.645 113.894C150.754 113.311 150.689 112.709 150.458 112.163C150.227 111.617 149.84 111.151 149.346 110.823C148.852 110.496 148.272 110.321 147.679 110.32C147.277 110.326 146.879 110.412 146.51 110.571C146.14 110.731 145.806 110.962 145.525 111.251C145.245 111.539 145.024 111.881 144.876 112.255C144.728 112.629 144.654 113.029 144.661 113.431Z" fill="#FF571E"/>
<path d="M424.552 213.027C423.297 212.684 422.152 212.02 421.232 211.1C420.311 210.18 419.647 209.035 419.305 207.78C417.261 200.072 421.534 196.404 419.305 193.851C417.076 191.297 411.828 195.383 408.624 201.094C408.495 201.313 408.317 201.5 408.103 201.638C407.89 201.776 407.647 201.862 407.394 201.889C407.141 201.916 406.885 201.884 406.647 201.794C406.409 201.704 406.195 201.56 406.023 201.372C405.419 200.676 404.816 200.026 404.165 199.376C398.36 193.479 390.698 188.743 389.165 192.04C389.005 192.373 388.921 192.738 388.921 193.108C388.921 193.477 389.005 193.842 389.165 194.176C389.63 195.151 390.141 196.126 390.605 197.147C390.329 196.94 390.001 196.814 389.657 196.783C389.314 196.752 388.968 196.818 388.66 196.972C388.351 197.126 388.092 197.363 387.91 197.657C387.729 197.95 387.633 198.288 387.633 198.633V212.191C387.648 213.348 388.096 214.457 388.887 215.302C389.333 215.934 389.902 216.471 390.559 216.88C401.333 227.002 415.404 238.842 415.404 238.842C415.944 234.662 417.25 230.616 419.258 226.91C420.957 221.824 424.527 217.575 429.243 215.023C427.626 214.49 426.057 213.822 424.552 213.027Z" fill="#AB5B44"/>
<path d="M411.178 236.196C421.067 245.292 431.555 253.715 442.571 261.408C448.887 266.051 457.989 268.419 462.587 265.262C487.107 248.547 460.079 225.285 460.079 225.285L424.785 211.355C419.566 219.243 415.014 227.552 411.178 236.196Z" fill="#8011AE"/>
<path d="M466.117 259.597C453.996 269.812 434.491 252.353 438.253 236.985C445.173 208.801 463.609 156.427 486.365 158.052C504.616 159.305 503.501 178.481 499.879 193.293C497.778 201.497 494.657 209.405 490.591 216.834L469.786 257.925C468.764 259.318 467.324 258.575 466.117 259.597Z" fill="#8011AE"/>
<path d="M447.355 217.948L483.253 238.888C483.253 238.888 520.684 170.96 491.798 153.919C459.244 134.65 447.355 217.948 447.355 217.948Z" fill="#8011AE"/>
<path d="M545.947 295.813L472.851 274.733L470.668 356.174C469.568 382.611 470.702 409.093 474.058 435.339L486.365 528.201L528.764 529.827L521.752 427.678C517.572 382.336 525.942 336.719 545.947 295.813Z" fill="#010101"/>
<path d="M581.38 280.492L534.058 295.814H512.695L534.058 402.048C535.789 414.554 538.208 426.954 541.302 439.193L558.996 528.666L603.439 525.277L584.863 435.2C573.439 335.188 581.566 278.077 581.38 280.492Z" fill="#010101"/>
<path d="M582.774 285.738V294.978L527.697 304.032L527 291.589L582.774 285.738Z" fill="white"/>
<path d="M470.343 274.084L468.578 287.456L522.913 305.518L528.3 288.199L470.343 274.084Z" fill="white"/>
<path d="M536.984 142.961C531.272 154.848 535.498 222.962 521.381 223.102C507.263 223.241 500.158 155.312 494.121 144.169L487.387 145.237C492.373 144.222 497.439 143.647 502.526 143.519L523.285 143.008H526.396C529.922 142.784 533.457 142.768 536.984 142.961Z" fill="white"/>
<path d="M571.907 166.549L588.95 285.738L587.557 286.202C547.213 298.57 503.781 296.167 465.049 279.423L475.033 215.812C475.043 205.051 473.86 194.321 471.504 183.821L465.049 163.113C468.076 158.296 472.048 154.142 476.726 150.902C481.403 147.662 486.688 145.403 492.263 144.262L494.631 143.844C496.394 147.227 497.945 150.716 499.275 154.291C500.589 157.847 503.008 160.889 506.178 162.971C509.348 165.052 513.101 166.063 516.888 165.855C520.674 165.647 524.295 164.232 527.218 161.816C530.141 159.401 532.213 156.113 533.13 152.434V151.876C533.755 149.307 535.289 147.05 537.449 145.522C539.608 143.995 542.247 143.3 544.879 143.565C566.845 145.701 572.975 155.591 571.907 166.549Z" fill="#8011AE"/>
<path d="M557.835 100.198C557.363 107.903 554.766 115.327 550.331 121.646C545.896 127.965 539.798 132.932 532.711 135.997C530.389 137.111 527.185 142.822 524.77 142.033C513.299 138.225 515.018 120.21 525.095 106.513C536.473 91.0978 555.56 76.2398 557.835 100.198Z" fill="#010101"/>
<path d="M531.273 151.32V117.054H502.619V151.32C505.266 155.777 531.273 159.213 531.273 151.32Z" fill="#AB5B44"/>
<path d="M545.669 122.346C545.669 122.346 525.793 146.49 507.774 137.111C489.756 127.732 505.824 90.6799 512.418 84.2724C519.013 77.8648 543.208 77.9113 551.01 98.2017C555.282 109.81 545.669 122.346 545.669 122.346Z" fill="#AB5B44"/>
<path d="M517.805 116.078C517.665 116.396 517.621 116.748 517.68 117.09C517.738 117.432 517.897 117.749 518.135 118.001C518.373 118.254 518.68 118.431 519.018 118.51C519.356 118.588 519.71 118.566 520.035 118.445C520.36 118.324 520.643 118.109 520.847 117.828C521.051 117.548 521.167 117.213 521.182 116.866C521.197 116.52 521.109 116.176 520.93 115.879C520.75 115.582 520.487 115.344 520.173 115.196C519.741 115.006 519.252 114.991 518.81 115.156C518.367 115.321 518.007 115.652 517.805 116.078Z" fill="#8E362C"/>
<path d="M506.194 117.425C505.219 117.007 502.664 115.614 503.361 113.571C503.687 112.86 504.272 112.3 504.998 112.006C505.723 111.713 506.533 111.708 507.262 111.992L510.698 107.349C510.764 107.296 510.846 107.268 510.931 107.268C511.015 107.268 511.097 107.296 511.163 107.349C511.192 107.375 511.216 107.407 511.232 107.443C511.249 107.479 511.257 107.518 511.257 107.558C511.257 107.598 511.249 107.637 511.232 107.673C511.216 107.709 511.192 107.741 511.163 107.767L507.587 112.41C507.53 112.443 507.466 112.46 507.401 112.46C507.336 112.46 507.272 112.443 507.215 112.41C507.215 112.41 504.568 111.574 503.918 113.478C503.268 115.382 506.658 116.682 506.705 116.682C506.751 116.682 506.983 116.96 506.705 117.1C506.678 117.129 506.646 117.153 506.61 117.169C506.574 117.186 506.535 117.194 506.496 117.194C506.456 117.194 506.417 117.186 506.381 117.169C506.345 117.153 506.313 117.129 506.287 117.1L506.194 117.425Z" fill="#010101"/>
<path d="M507.262 105.956C507.198 106.323 507.007 106.655 506.723 106.895C506.438 107.134 506.078 107.265 505.706 107.265C505.334 107.265 504.974 107.134 504.69 106.895C504.405 106.655 504.214 106.323 504.15 105.956C504.214 105.59 504.405 105.258 504.69 105.018C504.974 104.779 505.334 104.647 505.706 104.647C506.078 104.647 506.438 104.779 506.723 105.018C507.007 105.258 507.198 105.59 507.262 105.956Z" fill="#010101"/>
<path d="M517.479 110.785C517.479 111.192 517.318 111.581 517.03 111.869C516.743 112.156 516.353 112.317 515.947 112.317C515.54 112.317 515.15 112.156 514.863 111.869C514.576 111.581 514.414 111.192 514.414 110.785C514.414 110.379 514.576 109.989 514.863 109.702C515.15 109.414 515.54 109.253 515.947 109.253C516.353 109.253 516.743 109.414 517.03 109.702C517.318 109.989 517.479 110.379 517.479 110.785Z" fill="#010101"/>
<path d="M515.946 125.365C514.86 126.083 513.545 126.371 512.258 126.174C510.97 125.977 509.802 125.307 508.981 124.297C508.535 123.802 508.175 123.237 507.912 122.625C507.494 121.65 508.191 120.582 509.213 120.861C510.833 121.371 512.583 121.272 514.135 120.582C516.643 119.329 517.943 123.368 515.946 125.365Z" fill="#010101"/>
<path d="M515.946 125.365C514.86 126.083 513.545 126.371 512.257 126.174C510.97 125.976 509.802 125.307 508.98 124.297C510.838 123.647 515.946 121.418 515.946 125.365Z" fill="#EC6957"/>
<path d="M531.272 134.65C538.284 129.45 534.29 116.078 535.684 109.067C535.684 108.185 543.114 109.81 543.996 109.578C547.99 108.278 554.492 88.9622 557.371 94.9982C567.17 115.428 528.578 145.794 531.272 134.65Z" fill="#010101"/>
<path d="M565.034 237.496C565.034 236.707 557.325 216.138 553.796 206.294C543.672 177.971 540.793 160.327 553.796 148.488C557.14 145.423 563.084 147.837 566.102 150.856C590.669 174.071 605.762 241.675 601.861 240.839L565.034 237.496Z" fill="#8011AE"/>
<path d="M600.933 238.889C597.775 233.503 582.357 233.178 576.97 231.599C571.583 230.021 550.267 247.2 532.48 260.805V285.738L587.605 259.737C598.146 251.24 603.719 243.718 600.933 238.889Z" fill="#8011AE"/>
<path d="M547.572 269.951C546.472 267.573 544.862 265.466 542.855 263.781C540.848 262.095 538.495 260.873 535.962 260.2C527.556 258.204 515.157 253.654 514.274 256.532C513.392 259.411 513.949 260.061 522.773 263.776C522.773 265.076 520.962 267.537 515.018 267.815C509.073 268.094 502.479 269.765 506.891 273.99C506.891 273.99 504.708 277.612 510.652 279.609C506.705 281.605 512.278 284.252 514.878 285.134C518.48 287.319 522.65 288.386 526.86 288.198C534.244 288.198 535.08 286.295 541.163 283.277C543.421 282.218 545.292 280.482 546.516 278.309C547.739 276.137 548.255 273.637 547.99 271.158C547.889 270.743 547.749 270.339 547.572 269.951Z" fill="#AB5B44"/>
<path d="M506.845 274.223C510.865 274.918 514.982 274.824 518.965 273.944C518.965 273.944 518.965 273.944 518.965 273.666C518.965 273.387 518.965 273.666 518.687 273.666C514.777 274.507 510.743 274.602 506.798 273.944C506.798 273.944 506.798 273.944 506.52 273.944C506.519 273.985 506.527 274.026 506.544 274.063C506.561 274.1 506.586 274.133 506.617 274.16C506.648 274.186 506.684 274.206 506.724 274.217C506.763 274.228 506.804 274.23 506.845 274.223Z" fill="#010101"/>
<path d="M510.839 99.595C510.839 100.384 509.817 101.174 508.285 101.406C506.752 101.638 505.452 101.174 505.359 100.384C505.266 99.595 506.381 98.7592 507.913 98.527C509.446 98.2949 510.56 98.8056 510.839 99.595Z" fill="#010101"/>
<path d="M521.613 108.603C520.73 109.067 519.337 108.278 518.455 106.792C517.572 105.306 517.572 103.635 518.455 103.17C519.337 102.706 520.73 103.449 521.566 104.981C522.402 106.513 522.449 108.092 521.613 108.603Z" fill="#010101"/>
<path d="M515.993 165.853C498.02 165.853 494.305 144.123 494.259 143.937C494.246 143.866 494.247 143.794 494.264 143.724C494.281 143.654 494.312 143.588 494.356 143.531C494.4 143.474 494.455 143.427 494.518 143.393C494.582 143.359 494.651 143.339 494.723 143.333C494.79 143.32 494.86 143.32 494.927 143.334C494.994 143.348 495.057 143.375 495.114 143.414C495.17 143.453 495.218 143.503 495.254 143.561C495.291 143.619 495.316 143.684 495.327 143.751C495.327 143.983 498.903 164.692 515.993 164.785C532.99 164.785 536.426 143.101 536.473 142.869C536.484 142.802 536.508 142.737 536.545 142.679C536.582 142.621 536.63 142.571 536.686 142.532C536.742 142.493 536.806 142.466 536.873 142.452C536.94 142.438 537.009 142.438 537.076 142.451C537.216 142.474 537.342 142.549 537.428 142.661C537.514 142.773 537.554 142.914 537.541 143.055C537.494 143.287 534.058 165.853 515.993 165.853Z" fill="#010101"/>
<path d="M502.107 141.151C498.224 141.528 494.453 142.664 491.008 144.494L502.293 170.403L515.157 155.731C512.091 154.756 503.779 156.056 502.107 141.151Z" fill="white"/>
<path d="M531.271 138.598C531.625 143.401 530.222 148.169 527.324 152.016C525.739 153.485 523.841 154.574 521.773 155.201C519.706 155.829 517.522 155.978 515.389 155.638L530.017 169.103L539.305 144.634L531.271 138.598Z" fill="white"/>
<path d="M209.211 75.4972C209.003 75.4919 208.804 75.4091 208.654 75.265L183.391 50.0064C183.24 49.8506 183.156 49.6426 183.156 49.4261C183.156 49.2095 183.24 49.0015 183.391 48.8457L194.722 37.5164C194.887 37.3846 195.091 37.3127 195.303 37.3127C195.514 37.3127 195.718 37.3846 195.883 37.5164L209.211 51.0744L228.995 31.1089C229.064 31.0299 229.15 30.9666 229.246 30.9232C229.342 30.8798 229.446 30.8574 229.552 30.8574C229.657 30.8574 229.762 30.8798 229.858 30.9232C229.954 30.9666 230.039 31.0299 230.109 31.1089L241.487 42.4846C241.532 42.5706 241.555 42.6662 241.555 42.7632C241.555 42.8602 241.532 42.9557 241.487 43.0418C241.525 43.1296 241.545 43.2245 241.545 43.3203C241.545 43.4162 241.525 43.5111 241.487 43.5989L209.815 75.265C209.736 75.3441 209.642 75.4057 209.538 75.4458C209.434 75.4858 209.323 75.5033 209.211 75.4972ZM185.063 49.4493L209.211 73.5935L239.769 43.0418L229.552 32.7805L209.769 52.5602C209.699 52.6392 209.613 52.7025 209.517 52.7459C209.421 52.7892 209.317 52.8117 209.211 52.8117C209.106 52.8117 209.002 52.7892 208.906 52.7459C208.809 52.7025 208.724 52.6392 208.654 52.5602L195.326 39.188L185.063 49.4493Z" fill="#010101"/>
<path d="M402.448 214.095C397.146 219.413 394.145 226.599 394.089 234.107V240.932C394.118 255.271 389.326 269.204 380.482 280.492C378.867 282.616 377.098 284.618 375.188 286.481C366.182 295.508 354.699 301.659 342.193 304.155C329.688 306.651 316.722 305.38 304.94 300.502C293.158 295.624 283.089 287.359 276.01 276.754C268.93 266.149 265.158 253.682 265.172 240.932V233.782C265.104 226.431 262.133 219.404 256.905 214.234C251.863 209.127 247.366 203.509 243.484 197.473L330.048 168.685L246.457 82.8804C256.613 68.6264 270.263 57.2207 286.096 49.7569C301.929 42.2932 319.414 39.0218 336.875 40.2565C346.398 40.9033 355.781 42.9045 364.739 46.1997L353.408 141.523L428.315 115.429C430.34 122.668 431.539 130.114 431.891 137.623C432.529 151.711 430.242 165.779 425.175 178.94C420.108 192.101 412.37 204.071 402.448 214.095Z" fill="#FED227"/>
<path d="M304.414 342.152H354.708C362.097 340.49 368.703 336.37 373.444 330.465C378.185 324.561 380.781 317.222 380.807 309.65V280.491H278.314V309.511C278.317 317.104 280.902 324.472 285.644 330.403C290.387 336.334 297.006 340.477 304.414 342.152Z" fill="#8011AE"/>
<path d="M380.806 281.838H278.314C277.956 281.838 277.614 281.696 277.361 281.443C277.109 281.191 276.967 280.848 276.967 280.491C276.967 280.134 277.109 279.791 277.361 279.539C277.614 279.286 277.956 279.145 278.314 279.145H380.806C381.164 279.145 381.506 279.286 381.759 279.539C382.011 279.791 382.153 280.134 382.153 280.491C382.153 280.848 382.011 281.191 381.759 281.443C381.506 281.696 381.164 281.838 380.806 281.838Z" fill="#102B46"/>
<path d="M457.386 88.9157L380.807 113.199L390.095 17.876C424.971 27.8587 448.609 56.9711 457.386 88.9157Z" fill="#FF571E"/>
<path d="M278.918 156.195C278.918 156.195 247.943 191.204 224.63 200.398C199.227 212.423 198.902 177.971 198.902 177.971C211.026 179.106 223.181 176.146 233.426 169.564C243.67 162.983 251.414 153.159 255.42 141.662C268.469 142.823 278.918 156.195 278.918 156.195Z" fill="#FF954D"/>
<path d="M244.691 165.389C244.691 165.389 253.654 142.962 258.066 135.533C258.995 130.89 263.36 119.05 265.357 118.215C272.184 115.382 269.537 127.083 267.958 135.394L277.524 132.794C282.168 132.794 286.394 133.212 286.162 140.873C285.93 148.534 284.305 152.852 278.918 156.195C270.28 161.535 249.614 171.796 249.614 171.796L244.691 165.389Z" fill="#FF954D"/>
<path d="M185.759 168.963C194.819 174.713 205.714 176.835 216.27 174.907C212.973 185.354 220.914 197.24 226.812 202.765C206.936 208.616 180.744 206.341 149.768 190.972C147.493 178.11 145.125 153.827 154.18 147.559C165.79 152.434 168.019 157.216 185.759 168.963Z" fill="#FED227"/>
<path d="M316.255 184.564L229.645 213.305C218.648 196.092 213.047 175.987 213.56 155.569C214.073 135.151 220.677 115.352 232.524 98.7129L316.255 184.564Z" fill="#0C8CE6"/>
<path d="M246.132 204.529C245.98 204.576 245.819 204.576 245.667 204.529L235.358 197.611C235.237 197.468 235.17 197.287 235.17 197.1C235.17 196.913 235.237 196.732 235.358 196.59L239.491 188.511C238.237 187.071 237.122 185.632 236.101 184.192L226.859 185.725C226.669 185.76 226.473 185.728 226.303 185.635C226.134 185.542 226.002 185.393 225.93 185.214L218.268 163.856C218.2 163.676 218.201 163.477 218.269 163.298C218.338 163.118 218.469 162.97 218.639 162.881L226.859 158.748C226.745 156.924 226.745 155.094 226.859 153.269L218.268 149.555C218.093 149.467 217.953 149.323 217.869 149.147C217.785 148.97 217.762 148.771 217.803 148.58L224.444 126.757C224.498 126.573 224.618 126.415 224.78 126.312C224.943 126.209 225.137 126.17 225.327 126.2L234.615 127.593C235.568 125.98 236.623 124.429 237.773 122.95L233.129 115.056C233.036 114.887 233.008 114.69 233.051 114.502C233.094 114.313 233.204 114.147 233.361 114.035L240.187 108.927C240.335 108.78 240.536 108.697 240.745 108.697C240.954 108.697 241.154 108.78 241.302 108.927C241.449 109.075 241.532 109.276 241.532 109.485C241.532 109.694 241.449 109.894 241.302 110.042L235.033 114.685L239.677 122.393C239.764 122.523 239.811 122.676 239.811 122.834C239.811 122.991 239.764 123.144 239.677 123.275C238.342 124.927 237.116 126.664 236.008 128.475C235.927 128.608 235.809 128.714 235.669 128.78C235.529 128.846 235.372 128.869 235.218 128.846L226.209 127.5L219.568 148.58L227.788 152.248C227.939 152.3 228.067 152.402 228.152 152.537C228.236 152.672 228.272 152.832 228.252 152.991C228.117 155.093 228.117 157.203 228.252 159.305C228.271 159.464 228.24 159.624 228.166 159.765C228.091 159.906 227.976 160.021 227.834 160.095L219.754 164.181L227.045 184.332L235.915 182.567C236.071 182.523 236.237 182.531 236.387 182.59C236.538 182.648 236.666 182.755 236.751 182.892C237.963 184.63 239.266 186.304 240.652 187.907C240.74 188.037 240.787 188.191 240.787 188.348C240.787 188.505 240.74 188.659 240.652 188.789L236.844 196.543L246.55 203.09C246.686 203.184 246.79 203.319 246.846 203.475C246.902 203.631 246.907 203.801 246.861 203.961C246.814 204.12 246.719 204.261 246.588 204.363C246.457 204.465 246.298 204.523 246.132 204.529Z" fill="#102B46"/>
<path d="M269.352 128.475C269.352 131.54 273.299 134.047 278.175 134.047C283.051 134.047 286.952 131.54 286.952 128.475C286.952 125.411 283.005 122.903 278.175 122.903C273.345 122.903 269.352 125.364 269.352 128.475Z" fill="#FF954D"/>
<path d="M277.339 149.23C282.212 149.23 286.163 146.736 286.163 143.659C286.163 140.581 282.212 138.087 277.339 138.087C272.466 138.087 268.516 140.581 268.516 143.659C268.516 146.736 272.466 149.23 277.339 149.23Z" fill="#FF954D"/>
<path d="M278.267 141.662C284.166 141.662 288.948 139.167 288.948 136.09C288.948 133.013 284.166 130.519 278.267 130.519C272.368 130.519 267.586 133.013 267.586 136.09C267.586 139.167 272.368 141.662 278.267 141.662Z" fill="#FF954D"/>
<path d="M152.926 104.749C154.285 104.749 155.387 104.25 155.387 103.635C155.387 103.019 154.285 102.521 152.926 102.521C151.567 102.521 150.465 103.019 150.465 103.635C150.465 104.25 151.567 104.749 152.926 104.749Z" fill="#010101"/>
<path d="M166.765 111.435C166.208 111.667 165.279 110.831 164.768 109.578C164.257 108.324 164.257 107.07 164.768 106.838C165.279 106.606 166.208 107.395 166.765 108.695C167.322 109.996 167.183 111.156 166.765 111.435Z" fill="#010101"/>
<path d="M149.35 285.738L19.5038 275.244C19.4366 275.238 19.3712 275.219 19.3115 275.188C19.2517 275.157 19.1987 275.114 19.1555 275.062C19.1123 275.011 19.0798 274.951 19.0599 274.886C19.04 274.822 19.033 274.754 19.0394 274.687C19.0511 274.548 19.1149 274.417 19.2182 274.323C19.3214 274.228 19.4566 274.176 19.5967 274.176L148.839 284.623L152.368 208.941C152.367 208.871 152.381 208.802 152.41 208.738C152.439 208.675 152.482 208.619 152.535 208.574C152.589 208.53 152.652 208.498 152.719 208.481C152.787 208.464 152.857 208.462 152.926 208.476C153.02 208.513 153.101 208.576 153.158 208.659C153.216 208.742 153.248 208.84 153.251 208.941L149.675 285.134C149.717 285.254 149.717 285.385 149.675 285.506C149.639 285.564 149.592 285.615 149.536 285.655C149.48 285.695 149.417 285.723 149.35 285.738Z" fill="#010101"/>
<path d="M235.589 172.492C235.589 172.492 204.613 207.501 181.115 216.695C155.759 228.72 155.434 194.268 155.434 194.268C167.487 195.999 179.768 193.503 190.189 187.206C200.611 180.908 208.53 171.198 212.601 159.724C221.517 161.173 229.648 165.689 235.589 172.492Z" fill="#FF954D"/>
<path d="M144.289 184.61C153.543 189.896 164.304 191.923 174.847 190.368C173.918 201.186 176.89 214.048 183.577 218.877C153.252 224.913 120.744 222.87 108.298 206.572C106.069 193.664 103.654 169.427 112.71 163.159C122.639 171.152 133.2 178.326 144.289 184.61Z" fill="#FED227"/>
<path d="M206.332 172.307L218.917 187.443L241.255 168.685L223.933 154.013L212.601 159.724L206.332 172.307Z" fill="#FF954D"/>
<path d="M234.056 171.517C234.582 171.98 235.259 172.236 235.96 172.236C236.661 172.236 237.338 171.98 237.864 171.517L247.152 163.531C247.406 163.317 247.61 163.051 247.75 162.75C247.891 162.449 247.963 162.121 247.963 161.79C247.963 161.458 247.891 161.13 247.75 160.829C247.61 160.528 247.406 160.262 247.152 160.048C246.634 159.588 245.965 159.334 245.271 159.334C244.578 159.334 243.909 159.588 243.391 160.048L234.103 168.034C233.853 168.249 233.651 168.514 233.512 168.813C233.372 169.111 233.298 169.436 233.293 169.765C233.289 170.095 233.355 170.421 233.486 170.723C233.618 171.025 233.812 171.296 234.056 171.517Z" fill="#FF954D"/>
<path d="M230.018 164.274L234.429 168.035L247.758 153.734C247.936 153.536 248.072 153.304 248.158 153.052C248.243 152.8 248.276 152.533 248.254 152.268C248.232 152.002 248.156 151.744 248.031 151.509C247.906 151.274 247.734 151.068 247.525 150.902C247.102 150.529 246.557 150.324 245.993 150.324C245.429 150.324 244.884 150.529 244.46 150.902L230.018 164.274Z" fill="#FF954D"/>
<path d="M225.605 160.56L230.249 164.274L243.531 149.973C243.73 149.795 243.889 149.576 243.998 149.332C244.107 149.088 244.163 148.824 244.163 148.557C244.163 148.29 244.107 148.026 243.998 147.782C243.889 147.538 243.73 147.32 243.531 147.141C243.096 146.774 242.545 146.573 241.976 146.573C241.406 146.573 240.855 146.774 240.42 147.141L225.605 160.56Z" fill="#FF954D"/>
<path d="M219.475 155.359L225.605 160.559L238.886 146.259C239.085 146.08 239.244 145.862 239.353 145.618C239.462 145.374 239.518 145.11 239.518 144.842C239.518 144.575 239.462 144.311 239.353 144.067C239.244 143.823 239.085 143.605 238.886 143.426C238.46 143.041 237.905 142.828 237.331 142.828C236.756 142.828 236.202 143.041 235.775 143.426L219.475 155.359Z" fill="#FF954D"/>
<path d="M212.416 160.559L219.614 161.488L220.682 147.837C220.721 147.15 220.491 146.475 220.04 145.955C219.589 145.435 218.953 145.111 218.267 145.051C217.575 144.938 216.864 145.09 216.279 145.477C215.693 145.865 215.276 146.459 215.11 147.141L212.416 160.559Z" fill="#FF954D"/>
<path d="M154.181 222.87C139.526 223.441 125.045 219.538 112.664 211.68C106.05 206.896 100.476 200.821 96.277 193.822C92.0785 186.823 89.3431 179.045 88.2363 170.96C88.2706 170.845 88.3411 170.744 88.4373 170.672C88.5336 170.6 88.6504 170.562 88.7704 170.562C88.8904 170.562 89.0072 170.6 89.1034 170.672C89.1997 170.744 89.2702 170.845 89.3044 170.96C90.391 178.901 93.0794 186.539 97.2064 193.411C101.334 200.283 106.813 206.245 113.314 210.937C129.614 222.08 152.834 224.866 182.416 218.923C174.011 211.494 174.197 194.964 174.336 191.343C169.692 192.086 142.85 195.615 130.172 178.621C130.085 178.51 130.047 178.369 130.064 178.23C130.081 178.091 130.154 177.964 130.264 177.878C130.375 177.792 130.516 177.753 130.655 177.77C130.795 177.788 130.921 177.86 131.007 177.971C144.475 195.94 174.475 190.275 174.754 190.182C174.904 190.129 175.068 190.129 175.218 190.182C175.248 190.248 175.263 190.319 175.263 190.391C175.263 190.463 175.248 190.534 175.218 190.6C175.218 190.832 174.011 211.308 183.763 218.459C183.808 218.545 183.831 218.64 183.831 218.737C183.831 218.834 183.808 218.93 183.763 219.016C183.743 219.115 183.692 219.204 183.616 219.272C183.541 219.339 183.446 219.379 183.345 219.387C173.764 221.514 163.994 222.681 154.181 222.87Z" fill="#010101"/>
<path d="M362.23 359.518H310.636C298.319 359.518 286.507 354.626 277.798 345.918C269.089 337.211 264.196 325.401 264.196 313.086V280.817C254.232 271.402 247.957 258.74 246.502 245.111C245.785 239.231 246.131 233.271 247.524 227.514C247.539 227.4 247.58 227.291 247.642 227.194C247.703 227.098 247.786 227.016 247.883 226.954C247.98 226.893 248.089 226.853 248.203 226.838C248.316 226.823 248.432 226.833 248.542 226.867C248.651 226.901 248.752 226.959 248.837 227.036C248.922 227.113 248.989 227.208 249.034 227.314C249.078 227.42 249.099 227.534 249.095 227.648C249.091 227.763 249.062 227.876 249.01 227.978C247.687 233.541 247.342 239.291 247.988 244.972C249.443 258.324 255.639 270.713 265.45 279.888C265.598 280.036 265.681 280.236 265.682 280.445V312.947C265.694 324.864 270.434 336.288 278.862 344.715C287.29 353.141 298.717 357.88 310.636 357.892H362.23C362.338 357.886 362.446 357.902 362.547 357.939C362.648 357.975 362.741 358.033 362.819 358.107C362.897 358.18 362.96 358.27 363.002 358.369C363.045 358.468 363.066 358.574 363.066 358.682C363.066 358.792 363.045 358.9 363.003 359.002C362.961 359.103 362.899 359.195 362.821 359.273C362.744 359.35 362.652 359.412 362.55 359.454C362.449 359.496 362.34 359.518 362.23 359.518Z" fill="#010101"/>
<path d="M235.729 297.16C235.427 296.697 235.221 296.178 235.125 295.633C235.029 295.089 235.044 294.531 235.17 293.993C235.296 293.454 235.53 292.947 235.857 292.502C236.185 292.057 236.599 291.683 237.076 291.402C237.522 291.083 238.029 290.858 238.565 290.741C239.101 290.624 239.656 290.617 240.195 290.721C240.734 290.826 241.246 291.038 241.7 291.347C242.153 291.656 242.54 292.054 242.834 292.516C243.154 292.99 243.374 293.523 243.479 294.084C243.585 294.646 243.574 295.223 243.448 295.779C243.321 296.336 243.082 296.862 242.745 297.323C242.408 297.783 241.98 298.17 241.488 298.46C240.548 299.037 239.42 299.225 238.344 298.982C237.268 298.739 236.329 298.085 235.729 297.16ZM207.865 252.586L213.531 248.871L234.15 282.627L230.435 285.041L207.865 252.586Z" fill="#FF571E"/>
<path d="M480.373 14.9046C480.373 9.10069 475.729 5.06118 467.37 5.06118C464.475 4.87635 461.576 5.37225 458.907 6.50914C456.237 7.64603 453.871 9.39229 451.999 11.608L447.68 8.40423C450.163 5.55658 453.268 3.31773 456.755 1.86056C460.241 0.403386 464.016 -0.233125 467.788 0.000176329C479.073 0.000176329 486.364 5.3862 486.364 13.9295C486.364 27.8589 471.643 28.3697 471.643 39.931H465.652C465.605 26.6981 480.373 25.4909 480.373 14.9046ZM464.398 53.1639C464.398 52.0433 464.843 50.9686 465.636 50.1762C466.428 49.3838 467.503 48.9387 468.624 48.9387C469.745 48.9387 470.82 49.3838 471.612 50.1762C472.405 50.9686 472.85 52.0433 472.85 53.1639C472.85 54.2845 472.405 55.3592 471.612 56.1516C470.82 56.944 469.745 57.3892 468.624 57.3892C467.503 57.3892 466.428 56.944 465.636 56.1516C464.843 55.3592 464.398 54.2845 464.398 53.1639Z" fill="#8011AE"/>
<path d="M402.913 362.999C405.699 357.892 403.517 352.088 396.272 348.095C393.828 346.529 391.051 345.559 388.163 345.26C385.276 344.962 382.359 345.344 379.646 346.377L377.464 341.455C381.012 340.167 384.808 339.711 388.56 340.122C392.312 340.532 395.919 341.799 399.105 343.823C408.996 349.302 412.712 357.752 408.393 365.088C401.705 377.16 388.47 370.614 382.897 380.689L377.696 377.811C384.29 366.156 397.804 372.239 402.913 362.999ZM370.405 388.722C370.947 387.737 371.858 387.007 372.938 386.694C374.018 386.38 375.178 386.509 376.163 387.05C377.149 387.592 377.878 388.503 378.192 389.583C378.506 390.663 378.377 391.823 377.835 392.808C377.279 393.791 376.356 394.514 375.268 394.818C374.18 395.123 373.016 394.984 372.03 394.433C371.551 394.163 371.129 393.8 370.79 393.366C370.45 392.933 370.2 392.436 370.053 391.906C369.907 391.375 369.866 390.82 369.935 390.274C370.003 389.728 370.178 389.2 370.451 388.722H370.405Z" fill="#010101"/>
<path d="M344.723 145.841C344.556 145.838 344.394 145.783 344.26 145.683C344.127 145.583 344.029 145.443 343.979 145.284C343.942 145.186 343.925 145.082 343.928 144.978C343.931 144.874 343.955 144.771 343.999 144.676C344.042 144.581 344.103 144.496 344.18 144.425C344.256 144.354 344.346 144.298 344.444 144.262L428.036 114.639C428.239 114.571 428.461 114.587 428.652 114.683C428.844 114.779 428.99 114.947 429.057 115.15C429.125 115.353 429.109 115.575 429.013 115.766C428.918 115.958 428.75 116.104 428.546 116.171L344.955 145.794L344.723 145.841Z" fill="#010101"/>
<path d="M507.263 91.9344C507.263 91.9344 510.143 85.4804 515.762 88.6842C521.381 91.8879 523.006 92.1665 529.369 96.1596C535.731 100.153 533.502 105.771 528.719 115.8C534.57 117.518 557.511 107.907 557.79 104.378C557.764 101.705 557.095 99.0772 555.839 96.7168C556.652 94.5588 556.917 92.2328 556.609 89.9475C556.301 87.6622 555.43 85.4891 554.075 83.6232C551.758 80.1281 548.504 77.3557 544.685 75.6231C540.866 73.8905 536.637 73.2678 532.48 73.8262C517.712 67.6044 501.923 75.7763 507.263 91.9344Z" fill="#010101"/>
<path d="M517.247 139.851C512.528 139.892 507.949 138.245 504.337 135.208C503.595 134.588 502.925 133.887 502.34 133.118C502.254 133.007 502.215 132.867 502.233 132.727C502.25 132.588 502.322 132.461 502.433 132.375C502.544 132.289 502.684 132.25 502.824 132.268C502.963 132.285 503.09 132.357 503.176 132.468C503.71 133.181 504.334 133.821 505.034 134.372C507.113 136.189 509.573 137.519 512.232 138.266C514.891 139.013 517.683 139.158 520.405 138.69C523.232 138.187 525.951 137.197 528.439 135.765C528.545 135.682 528.676 135.637 528.811 135.637C528.945 135.637 529.076 135.682 529.182 135.765C529.274 135.867 529.324 135.999 529.324 136.136C529.324 136.273 529.274 136.405 529.182 136.508C526.581 138.011 523.736 139.048 520.777 139.572C519.611 139.768 518.43 139.861 517.247 139.851Z" fill="#010101"/>
<path d="M584.864 527.32H594.152C600.199 527.32 605.999 529.721 610.275 533.997C614.551 538.272 616.954 544.071 616.954 550.117V552.532C616.954 553.818 616.7 555.092 616.208 556.281C615.715 557.469 614.994 558.549 614.084 559.459C613.174 560.369 612.094 561.091 610.905 561.583C609.716 562.075 608.442 562.329 607.155 562.329H566.566C564.633 562.329 562.778 561.561 561.411 560.194C560.044 558.826 559.275 556.972 559.275 555.039V552.903C559.275 546.069 561.991 539.514 566.824 534.681C571.658 529.849 578.214 527.134 585.05 527.134L584.864 527.32Z" fill="#8011AE"/>
<path d="M587.742 533.402C587.7 533.426 587.652 533.439 587.603 533.439C587.554 533.439 587.506 533.426 587.463 533.402C587.435 533.353 587.42 533.297 587.42 533.24C587.42 533.182 587.435 533.126 587.463 533.077C588.671 529.455 592.107 523.791 595.126 523.791C595.756 523.739 596.386 523.88 596.934 524.195C597.481 524.51 597.92 524.985 598.191 525.555C598.506 525.975 598.706 526.47 598.771 526.992C598.837 527.513 598.765 528.042 598.563 528.527C596.984 532.056 588.253 533.681 587.881 533.727L587.742 533.402ZM595.451 524.116H595.126C592.758 524.394 589.739 528.527 588.299 532.473C590.296 532.009 596.612 530.477 597.587 527.83C597.746 527.46 597.805 527.055 597.756 526.655C597.707 526.255 597.552 525.876 597.309 525.555C597.125 525.197 596.863 524.886 596.541 524.644C596.219 524.403 595.846 524.238 595.451 524.162V524.116Z" fill="white"/>
<path d="M587.743 533.402C584.028 532.566 578.223 529.919 577.526 526.762C577.469 526.2 577.546 525.633 577.751 525.107C577.955 524.58 578.281 524.11 578.703 523.734C579.124 523.358 579.628 523.087 580.175 522.944C580.721 522.8 581.293 522.788 581.845 522.908C585.56 524.069 588.068 532.566 588.161 532.937C588.193 532.994 588.211 533.058 588.211 533.123C588.211 533.188 588.193 533.252 588.161 533.309L587.743 533.402ZM580.916 523.465C580.319 523.502 579.749 523.73 579.291 524.115C578.868 524.369 578.532 524.744 578.325 525.191C578.118 525.638 578.05 526.137 578.13 526.623C578.687 528.944 583.145 531.266 587.418 532.519C586.768 530.569 584.585 524.487 581.752 523.605C581.484 523.507 581.201 523.46 580.916 523.465Z" fill="white"/>
<path d="M594.431 541.016C594.488 540.943 594.518 540.853 594.518 540.761C594.518 540.669 594.488 540.579 594.431 540.506C593.076 538.856 591.376 537.524 589.45 536.601C587.525 535.679 585.421 535.189 583.286 535.166C583.237 535.166 583.188 535.176 583.143 535.194C583.098 535.213 583.057 535.24 583.023 535.275C582.988 535.309 582.961 535.35 582.942 535.395C582.924 535.44 582.914 535.489 582.914 535.537C582.914 535.586 582.924 535.635 582.942 535.68C582.961 535.725 582.988 535.766 583.023 535.8C583.057 535.835 583.098 535.862 583.143 535.881C583.188 535.899 583.237 535.909 583.286 535.909C585.305 535.938 587.293 536.406 589.113 537.28C590.934 538.154 592.542 539.413 593.827 540.97C593.904 541.038 594.003 541.076 594.106 541.076C594.209 541.076 594.308 541.038 594.385 540.97L594.431 541.016Z" fill="white"/>
<path d="M592.526 535.863C592.553 535.756 592.553 535.644 592.526 535.538C592.515 535.488 592.494 535.441 592.465 535.4C592.435 535.359 592.397 535.324 592.354 535.298C592.31 535.272 592.262 535.255 592.212 535.248C592.161 535.242 592.11 535.245 592.061 535.259C589.969 535.68 587.994 536.555 586.277 537.823C584.56 539.091 583.142 540.72 582.123 542.595C582.058 542.664 582.021 542.756 582.021 542.851C582.021 542.946 582.058 543.037 582.123 543.106C582.192 543.171 582.284 543.208 582.379 543.208C582.474 543.208 582.565 543.171 582.634 543.106C583.595 541.354 584.922 539.83 586.525 538.636C588.128 537.443 589.968 536.608 591.922 536.188L592.526 535.863Z" fill="white"/>
<path d="M459.755 564L521.52 563.536L534.338 563.257L529.694 534.841L509.167 536.606C505.954 532.192 501.336 528.999 496.071 527.552C486.795 527.339 477.725 530.31 470.373 535.97C463.022 541.631 457.832 549.639 455.669 558.661C455.487 559.289 455.455 559.951 455.576 560.594C455.697 561.237 455.967 561.842 456.364 562.362C456.762 562.881 457.276 563.3 457.865 563.584C458.454 563.869 459.101 564.011 459.755 564Z" fill="#8011AE"/>
<path d="M511.117 543.245C511.166 543.24 511.213 543.224 511.256 543.2C511.299 543.176 511.337 543.143 511.367 543.105C511.397 543.066 511.419 543.021 511.432 542.974C511.445 542.926 511.448 542.876 511.442 542.828C510.049 531.684 496.256 527.041 496.117 526.995C496.051 526.942 495.969 526.913 495.885 526.913C495.8 526.913 495.718 526.942 495.652 526.995C495.623 527.087 495.631 527.187 495.674 527.274C495.717 527.361 495.793 527.427 495.885 527.459C495.885 527.459 509.352 532.102 510.699 542.688C510.658 542.752 510.637 542.827 510.64 542.903C510.643 542.978 510.669 543.052 510.714 543.112C510.76 543.173 510.823 543.218 510.895 543.242C510.967 543.266 511.044 543.267 511.117 543.245Z" fill="white"/>
<path d="M485.946 541.11C486.022 541.105 486.096 541.081 486.161 541.04C486.226 541 486.28 540.944 486.318 540.878C487.224 538.921 487.694 536.79 487.694 534.633C487.694 532.476 487.224 530.345 486.318 528.388C486.244 528.331 486.155 528.301 486.062 528.301C485.97 528.301 485.88 528.331 485.807 528.388C485.741 528.457 485.705 528.548 485.705 528.643C485.705 528.738 485.741 528.83 485.807 528.899C486.677 530.751 487.128 532.772 487.128 534.819C487.128 536.865 486.677 538.886 485.807 540.739C485.741 540.808 485.705 540.899 485.705 540.994C485.705 541.089 485.741 541.18 485.807 541.249L485.946 541.11Z" fill="white"/>
<path d="M489.894 537.255C489.959 537.186 489.996 537.095 489.996 537C489.996 536.905 489.959 536.814 489.894 536.745C488.606 535.013 486.952 533.587 485.049 532.567C483.147 531.548 481.043 530.961 478.888 530.848C478.791 530.845 478.697 530.876 478.621 530.936C478.544 530.995 478.491 531.079 478.47 531.173C478.463 531.225 478.468 531.279 478.483 531.329C478.499 531.38 478.525 531.426 478.561 531.466C478.596 531.506 478.639 531.537 478.687 531.559C478.736 531.58 478.788 531.591 478.841 531.591C480.885 531.695 482.881 532.248 484.687 533.211C486.493 534.174 488.065 535.523 489.29 537.162C489.363 537.248 489.464 537.305 489.575 537.322C489.686 537.339 489.799 537.315 489.894 537.255Z" fill="white"/>
<path d="M476.52 545.846C476.611 545.847 476.699 545.814 476.767 545.754C476.836 545.694 476.88 545.611 476.891 545.521C477.192 543.385 477.019 541.208 476.385 539.146C475.751 537.084 474.671 535.187 473.223 533.588C473.154 533.523 473.062 533.486 472.967 533.486C472.872 533.486 472.781 533.523 472.712 533.588C472.672 533.623 472.641 533.666 472.619 533.714C472.597 533.762 472.586 533.814 472.586 533.867C472.586 533.919 472.597 533.971 472.619 534.019C472.641 534.067 472.672 534.11 472.712 534.145C474.09 535.661 475.116 537.463 475.719 539.421C476.321 541.379 476.483 543.446 476.195 545.474C476.2 545.569 476.234 545.66 476.292 545.734C476.35 545.809 476.429 545.864 476.52 545.892V545.846Z" fill="white"/>
<path d="M479.119 540.971C479.177 540.939 479.226 540.892 479.26 540.834C479.293 540.777 479.311 540.712 479.311 540.646C479.311 540.579 479.293 540.514 479.26 540.457C479.226 540.4 479.177 540.353 479.119 540.321C477.379 539.042 475.375 538.17 473.253 537.768C471.131 537.366 468.946 537.445 466.859 537.999C466.769 538.021 466.69 538.076 466.639 538.154C466.587 538.231 466.566 538.325 466.581 538.417C466.591 538.467 466.612 538.513 466.642 538.555C466.671 538.596 466.709 538.631 466.753 538.657C466.796 538.683 466.844 538.7 466.895 538.706C466.945 538.713 466.996 538.709 467.045 538.696C469.032 538.186 471.107 538.122 473.122 538.507C475.137 538.892 477.042 539.718 478.701 540.924L479.119 540.971Z" fill="white"/>
<path d="M481.675 531.034H481.35C481.35 531.034 481.35 531.034 481.117 530.755C480.56 526.994 481.117 520.54 483.625 518.729C484.144 518.372 484.76 518.181 485.39 518.181C486.02 518.181 486.636 518.372 487.155 518.729C487.634 518.962 488.045 519.315 488.347 519.755C488.648 520.195 488.829 520.705 488.873 521.237C488.873 525.137 482 530.523 481.721 530.848L481.675 531.034ZM484.275 519.194C482.232 520.54 481.489 525.648 482 529.873C483.625 528.526 488.548 524.255 488.362 521.283C488.325 520.875 488.182 520.484 487.945 520.15C487.708 519.816 487.388 519.55 487.015 519.379C486.632 519.074 486.164 518.892 485.674 518.859C485.185 518.826 484.697 518.943 484.275 519.194Z" fill="#010101"/>
<path d="M481.673 531.034C477.958 532.009 471.549 532.287 469.46 529.826C469.056 529.329 468.813 528.721 468.763 528.082C468.714 527.444 468.859 526.805 469.181 526.251C469.364 525.756 469.676 525.319 470.084 524.985C470.492 524.65 470.982 524.43 471.503 524.347C475.404 523.651 481.581 530.105 481.859 530.384C481.906 530.503 481.906 530.636 481.859 530.755C481.834 530.868 481.768 530.967 481.673 531.034ZM470.946 525.276C470.413 525.575 470.002 526.051 469.785 526.623C469.503 527.033 469.353 527.518 469.353 528.016C469.353 528.513 469.503 528.998 469.785 529.408C471.364 531.266 476.519 531.451 480.605 530.523C479.119 529.037 474.336 524.626 471.317 525.09L470.946 525.276Z" fill="#010101"/>
<path d="M549.522 286.295H549.243C549.151 286.248 549.074 286.174 549.024 286.083C548.975 285.992 548.954 285.887 548.965 285.784C548.965 285.784 550.869 266.515 538.98 256.021C538.951 255.956 538.936 255.885 538.936 255.813C538.936 255.741 538.951 255.669 538.98 255.604C538.951 255.538 538.936 255.467 538.936 255.395C538.936 255.323 538.951 255.251 538.98 255.186L564.336 237.403L553.284 206.572C553.253 206.509 553.237 206.439 553.234 206.369C553.232 206.299 553.245 206.228 553.271 206.163C553.297 206.098 553.336 206.038 553.386 205.989C553.437 205.939 553.497 205.901 553.562 205.876C553.698 205.83 553.846 205.838 553.976 205.899C554.105 205.959 554.207 206.068 554.259 206.201L565.497 237.403C565.565 237.497 565.602 237.611 565.602 237.728C565.602 237.844 565.565 237.958 565.497 238.053L540.281 255.696C550.404 264.983 550.451 280.537 550.265 284.809L587.417 259.365C587.519 259.273 587.651 259.223 587.789 259.223C587.926 259.223 588.058 259.273 588.16 259.365C588.218 259.408 588.265 259.464 588.297 259.528C588.329 259.593 588.346 259.664 588.346 259.736C588.346 259.808 588.329 259.879 588.297 259.944C588.265 260.008 588.218 260.064 588.16 260.107L550.079 286.155L549.522 286.295Z" fill="#010101"/>
<path d="M465.049 279.934C464.981 279.922 464.917 279.898 464.859 279.861C464.801 279.825 464.751 279.777 464.712 279.72C464.673 279.664 464.646 279.6 464.632 279.533C464.618 279.466 464.618 279.397 464.631 279.33L476.612 196.497C476.647 196.382 476.717 196.281 476.813 196.209C476.91 196.137 477.026 196.099 477.146 196.099C477.266 196.099 477.383 196.137 477.48 196.209C477.576 196.281 477.646 196.382 477.681 196.497L465.56 279.516C465.554 279.577 465.536 279.636 465.507 279.69C465.478 279.744 465.439 279.792 465.391 279.831C465.344 279.87 465.289 279.899 465.23 279.917C465.172 279.934 465.11 279.94 465.049 279.934Z" fill="#010101"/>
<path d="M442.433 92.5375C442.332 92.5106 442.238 92.464 442.155 92.4003C442.072 92.3366 442.003 92.2571 441.951 92.1664C441.899 92.0757 441.866 91.9756 441.853 91.8719C441.84 91.7683 441.848 91.6631 441.876 91.5625L443.362 85.4335L436.536 82.7405C436.393 82.6904 436.271 82.5954 436.187 82.4698C436.103 82.3442 436.063 82.1948 436.071 82.0441C436.071 80.1868 436.071 78.4689 435.7 76.8438C435.67 76.6898 435.691 76.5306 435.757 76.3888C435.824 76.2471 435.934 76.13 436.071 76.0544L442.341 72.3864L435.607 56.2283L428.594 57.9927C428.444 58.0415 428.281 58.0408 428.131 57.9906C427.98 57.9405 427.85 57.8436 427.758 57.7141C426.71 56.3156 425.578 54.9821 424.368 53.721C424.28 53.5907 424.234 53.4371 424.234 53.2799C424.234 53.1228 424.28 52.9692 424.368 52.8388L427.248 46.4313L412.387 37.1451L407.743 42.7168C407.641 42.8329 407.508 42.9167 407.36 42.958C407.211 42.9992 407.054 42.9961 406.907 42.949C405.216 42.4497 403.494 42.062 401.752 41.7882C401.596 41.7643 401.45 41.694 401.334 41.5863C401.218 41.4787 401.137 41.3387 401.102 41.1846L399.616 33.8949L390.328 34.5914C390.221 34.6042 390.112 34.5949 390.008 34.5639C389.904 34.533 389.808 34.4811 389.725 34.4114C389.643 34.3417 389.575 34.2558 389.527 34.159C389.479 34.0621 389.451 33.9565 389.446 33.8485C389.441 33.6555 389.503 33.4669 389.621 33.3145C389.74 33.1622 389.908 33.0555 390.096 33.0127L400.173 32.5019C400.362 32.4857 400.55 32.5377 400.703 32.6485C400.857 32.7593 400.965 32.9215 401.009 33.1056L402.588 40.3953C403.999 40.6591 405.394 41.0001 406.768 41.4167L411.412 35.7057C411.562 35.5811 411.751 35.5129 411.946 35.5129C412.141 35.5129 412.33 35.5811 412.48 35.7057L428.501 45.642C428.663 45.739 428.781 45.8936 428.833 46.0746C428.885 46.2556 428.866 46.4495 428.78 46.617L425.808 53.396C426.83 54.5103 427.758 55.5783 428.594 56.6926L435.793 54.8818C435.977 54.8431 436.169 54.868 436.338 54.9523C436.506 55.0366 436.642 55.1753 436.721 55.3461L443.827 72.8042C443.892 72.9866 443.896 73.1854 443.837 73.37C443.778 73.5546 443.66 73.7148 443.502 73.8257L437.093 77.4938C437.276 78.9422 437.384 80.3989 437.418 81.8583L444.291 84.5978C444.468 84.6702 444.612 84.8043 444.697 84.975C444.783 85.1457 444.803 85.3416 444.755 85.5264L443.084 92.3054C443 92.3908 442.898 92.456 442.785 92.4963C442.673 92.5365 442.552 92.5506 442.433 92.5375Z" fill="#102B46"/>
<path d="M558.671 300.271C558.545 300.275 558.421 300.236 558.319 300.16C558.218 300.084 558.146 299.976 558.114 299.853C558.097 299.713 558.129 299.571 558.205 299.452C558.282 299.334 558.397 299.245 558.532 299.203L582.263 294.56V287.595C582.256 287.524 582.265 287.453 582.287 287.386C582.31 287.318 582.347 287.256 582.395 287.204C582.443 287.151 582.501 287.109 582.567 287.081C582.632 287.052 582.702 287.038 582.774 287.038C582.921 287.038 583.063 287.097 583.168 287.201C583.272 287.306 583.331 287.447 583.331 287.595V294.978C583.333 295.099 583.292 295.216 583.215 295.31C583.139 295.403 583.032 295.467 582.913 295.489L558.764 300.132L558.671 300.271Z" fill="#010101"/>
<path d="M233.36 218.831C233.193 218.828 233.031 218.773 232.897 218.673C232.764 218.573 232.666 218.433 232.617 218.273C232.556 218.07 232.575 217.851 232.67 217.662C232.765 217.472 232.929 217.326 233.127 217.252L320.434 188.743C320.532 188.706 320.636 188.689 320.74 188.692C320.844 188.695 320.947 188.719 321.042 188.762C321.137 188.805 321.223 188.867 321.294 188.943C321.365 189.02 321.42 189.11 321.456 189.207C321.516 189.411 321.497 189.629 321.402 189.819C321.307 190.009 321.144 190.155 320.945 190.229L233.592 218.784L233.36 218.831Z" fill="#010101"/>
<path d="M522.913 306.028L468.393 287.874C468.273 287.831 468.174 287.746 468.114 287.634C468.054 287.523 468.037 287.393 468.068 287.27L469.414 281.234C469.449 281.119 469.519 281.018 469.615 280.946C469.712 280.875 469.828 280.836 469.948 280.836C470.068 280.836 470.185 280.875 470.281 280.946C470.378 281.018 470.448 281.119 470.482 281.234L469.182 286.806L523.099 304.682C523.234 304.682 523.364 304.736 523.46 304.831C523.556 304.927 523.61 305.057 523.61 305.192C523.61 305.328 523.556 305.458 523.46 305.554C523.364 305.649 523.234 305.703 523.099 305.703L522.913 306.028Z" fill="#010101"/>
<path d="M502.293 170.914C502.207 170.9 502.127 170.862 502.061 170.805C501.995 170.747 501.947 170.672 501.922 170.589L490.591 144.727C490.56 144.663 490.544 144.594 490.541 144.523C490.539 144.453 490.551 144.383 490.578 144.318C490.604 144.252 490.643 144.193 490.693 144.143C490.744 144.094 490.803 144.055 490.869 144.03L501.968 138.783C502.046 138.739 502.134 138.715 502.224 138.715C502.313 138.715 502.402 138.739 502.479 138.783C502.513 138.856 502.53 138.936 502.53 139.016C502.53 139.096 502.513 139.175 502.479 139.248C502.262 143.641 503.612 147.968 506.287 151.459C507.446 152.651 508.844 153.585 510.388 154.201C511.932 154.817 513.589 155.101 515.25 155.034C528.486 155.267 530.436 146.816 530.622 138.551C530.614 138.455 530.636 138.358 530.686 138.274C530.736 138.191 530.811 138.126 530.9 138.087C530.981 138.027 531.079 137.994 531.179 137.994C531.28 137.994 531.377 138.027 531.458 138.087L539.492 144.123C539.556 144.211 539.591 144.316 539.591 144.425C539.591 144.533 539.556 144.639 539.492 144.727L530.204 169.196C530.176 169.27 530.132 169.337 530.076 169.394C530.02 169.45 529.953 169.493 529.879 169.521C529.807 169.558 529.727 169.577 529.647 169.577C529.566 169.577 529.486 169.558 529.414 169.521L514.879 158.656L502.34 170.775C502.331 170.823 502.316 170.87 502.293 170.914ZM491.705 144.773L502.479 169.475L514.832 157.588C514.924 157.513 515.039 157.471 515.157 157.471C515.276 157.471 515.391 157.513 515.482 157.588L529.786 168.314L538.702 144.82L531.829 139.619C531.504 147.652 529.089 156.381 515.436 156.149C513.624 156.215 511.818 155.898 510.138 155.218C508.457 154.538 506.939 153.51 505.684 152.202C502.94 148.786 501.492 144.51 501.597 140.13L491.705 144.773Z" fill="#010101"/>
<path d="M530.947 118.4L528.578 123.693C532.293 125.086 538.563 126.525 540.792 121.093C541.293 120.26 541.457 119.267 541.25 118.318C541.043 117.368 540.48 116.534 539.677 115.985C538.972 115.477 538.162 115.133 537.306 114.979C536.45 114.825 535.57 114.866 534.732 115.098C533.894 115.33 533.119 115.747 532.464 116.318C531.808 116.89 531.29 117.601 530.947 118.4Z" fill="#AB5B44"/>
<path d="M532.247 117.75C532.32 117.807 532.41 117.837 532.502 117.837C532.595 117.837 532.684 117.807 532.758 117.75C533.221 117.454 533.742 117.26 534.286 117.182C534.831 117.104 535.385 117.143 535.913 117.297C536.441 117.451 536.93 117.716 537.347 118.075C537.764 118.433 538.099 118.876 538.33 119.375C538.37 119.424 538.419 119.463 538.475 119.49C538.532 119.516 538.593 119.53 538.655 119.53C538.718 119.53 538.779 119.516 538.836 119.49C538.892 119.463 538.941 119.424 538.981 119.375C539.069 119.281 539.118 119.156 539.118 119.027C539.118 118.898 539.069 118.773 538.981 118.679C538.707 118.065 538.303 117.518 537.797 117.076C537.292 116.633 536.696 116.306 536.051 116.116C535.407 115.926 534.729 115.878 534.064 115.976C533.399 116.074 532.763 116.315 532.2 116.682C532.121 116.781 532.078 116.904 532.078 117.03C532.078 117.157 532.121 117.28 532.2 117.379C532.2 117.379 532.2 117.704 532.247 117.75Z" fill="#010101"/>
</g>
<defs>
<clipPath id="clip0_515_7397">
<rect width="617" height="564" fill="white"/>
</clipPath>
</defs>
</svg>
