<svg width="58" height="157" viewBox="0 0 58 157" fill="none" xmlns="http://www.w3.org/2000/svg">
<path d="M19.4299 48.7294L8.78967 50.9106C8.75339 50.9207 8.71464 50.9166 8.68126 50.8992C8.64788 50.8818 8.62236 50.8523 8.60985 50.8168L8.40659 46.6889C8.40417 46.654 8.41484 46.6194 8.43652 46.592C8.4582 46.5645 8.48934 46.5461 8.52386 46.5404L17.5614 44.6875C17.5946 44.6795 17.6295 44.6838 17.6597 44.6997C17.6899 44.7155 17.7133 44.7417 17.7256 44.7735L19.4299 48.7685V48.7294Z" fill="#404040"/>
<path d="M19.7341 29.5281L8.35897 17.1991C8.31869 17.1608 8.26741 17.1361 8.21235 17.1285C8.15729 17.1209 8.10123 17.1307 8.05204 17.1566C8.00285 17.1825 7.96302 17.2231 7.93814 17.2728C7.91326 17.3225 7.90459 17.3788 7.91335 17.4337L10.4776 29.9424C10.785 29.9678 11.0728 30.1039 11.2875 30.3253C11.5022 30.5467 11.6293 30.8385 11.6453 31.1465C11.6613 31.4545 11.565 31.7578 11.3743 32.0003C11.1836 32.2427 10.9115 32.4077 10.6084 32.4648C10.3053 32.5218 9.99179 32.467 9.72603 32.3105C9.46026 32.154 9.26027 31.9064 9.16316 31.6137C9.06604 31.321 9.07839 31.0029 9.19791 30.7186C9.31743 30.4343 9.53602 30.203 9.81312 30.0675L7.241 17.5353C7.2361 17.474 7.2095 17.4166 7.16598 17.3732C7.12246 17.3298 7.06489 17.3034 7.00362 17.2986C6.94235 17.2939 6.88141 17.3112 6.83177 17.3475C6.78213 17.3837 6.74705 17.4364 6.73283 17.4962L0.478447 33.6169C0.459237 33.6544 0.449219 33.6959 0.449219 33.7381C0.449219 33.7802 0.459237 33.8217 0.478447 33.8593L7.98371 45.039C8.01054 45.0832 8.05081 45.1177 8.09864 45.1374C8.14646 45.157 8.19933 45.1609 8.24952 45.1484L17.1698 43.3268C17.2216 43.3175 17.2691 43.2921 17.3056 43.2542C17.3421 43.2163 17.3657 43.1678 17.3731 43.1157L19.7185 29.7861C19.7443 29.7486 19.7595 29.7047 19.7622 29.6593C19.765 29.6138 19.7553 29.5684 19.7341 29.5281Z" fill="#404040"/>
<path d="M19.3938 48.5656L8.60938 50.7715L19.5902 104.456L30.3746 102.25L19.3938 48.5656Z" fill="black"/>
<path d="M35.539 33.3145L24.5352 33.6084L25.9982 88.3851L37.002 88.0912L35.539 33.3145Z" fill="#404040"/>
<path d="M35.541 33.4836L24.7131 33.7728C24.6918 33.7743 24.6705 33.771 24.6507 33.763C24.6309 33.755 24.6132 33.7427 24.5989 33.7269C24.5846 33.711 24.574 33.6922 24.5681 33.6717C24.5621 33.6512 24.5609 33.6297 24.5645 33.6086L25.0883 29.512C25.0922 29.4775 25.1087 29.4456 25.1347 29.4225C25.1607 29.3994 25.1943 29.3867 25.2291 29.3869L34.4465 29.1368C34.481 29.136 34.5147 29.1473 34.5418 29.1687C34.5689 29.1901 34.5877 29.2203 34.595 29.254L35.5801 33.4836H35.541Z" stroke="#404040" stroke-width="0.781798" stroke-miterlimit="10"/>
<path d="M39.1769 14.6272L30.1237 0.515749C30.0935 0.467183 30.0481 0.430002 29.9946 0.410044C29.941 0.390085 29.8823 0.388478 29.8277 0.405477C29.7732 0.422475 29.7258 0.457115 29.693 0.503959C29.6603 0.550803 29.644 0.607199 29.6468 0.664291L29.9908 13.4545C30.2878 13.5368 30.545 13.7239 30.7147 13.9813C30.8843 14.2387 30.9549 14.5488 30.9134 14.8542C30.8719 15.1597 30.7211 15.4397 30.4889 15.6425C30.2567 15.8452 29.9589 15.957 29.6507 15.957C29.3424 15.957 29.0446 15.8452 28.8125 15.6425C28.5803 15.4397 28.4295 15.1597 28.388 14.8542C28.3465 14.5488 28.4171 14.2387 28.5867 13.9813C28.7564 13.7239 29.0135 13.5368 29.3106 13.4545L28.9744 0.640837C28.9749 0.583297 28.9561 0.527261 28.921 0.481637C28.8859 0.436014 28.8366 0.403422 28.7809 0.389044C28.7252 0.374665 28.6663 0.379326 28.6135 0.402284C28.5607 0.425242 28.5172 0.465181 28.4897 0.515749L19.5303 15.2683C19.5129 15.3049 19.5039 15.345 19.5039 15.3856C19.5039 15.4261 19.5129 15.4662 19.5303 15.5028L25.0029 27.824C25.0226 27.8732 25.0575 27.9148 25.1025 27.9429C25.1475 27.971 25.2002 27.9841 25.2531 27.9803L34.3532 27.738C34.4056 27.7385 34.4569 27.7221 34.4991 27.6911C34.5414 27.66 34.5725 27.6162 34.5877 27.566L39.2785 14.8539C39.2813 14.8107 39.2735 14.7675 39.2558 14.728C39.2381 14.6885 39.211 14.6539 39.1769 14.6272V14.6272Z" stroke="#404040" stroke-width="0.781798" stroke-miterlimit="10"/>
<path d="M54.2614 48.0333L43.5508 45.3752L44.6531 40.8877L55.2699 43.6474L54.2614 48.0333Z" fill="#404040"/>
<path d="M54.3016 47.8727L43.6172 45.2246L30.435 98.4116L41.1195 101.06L54.3016 47.8727Z" fill="black"/>
<path d="M55.1866 41.9672L57.1177 33.5864L54.1077 23.2197L47.3686 31.1784L45.3125 39.5046L55.1866 41.9672Z" stroke="#404040" stroke-width="0.781798" stroke-miterlimit="10"/>
<path d="M50.2109 27.7773L55.8008 29.0282" stroke="#404040" stroke-width="0.781798" stroke-miterlimit="10"/>
<path d="M7.16197 83.5977H52.7955C53.1384 83.5977 53.478 83.6652 53.7948 83.7964C54.1116 83.9276 54.3995 84.12 54.6419 84.3625C54.8844 84.6049 55.0768 84.8928 55.208 85.2096C55.3392 85.5264 55.4067 85.866 55.4067 86.2089V136.815C55.4098 139.421 54.8993 142.002 53.9044 144.41C52.9095 146.819 51.4497 149.008 49.6085 150.852C47.7672 152.696 45.5806 154.159 43.1736 155.158C40.7666 156.157 38.1863 156.671 35.5803 156.672H23.7126C18.641 156.672 13.777 154.658 10.1908 151.071C6.60457 147.485 4.58986 142.621 4.58986 137.55V86.1776C4.58883 85.8392 4.6546 85.5039 4.7834 85.1909C4.9122 84.8779 5.1015 84.5934 5.34044 84.3538C5.57939 84.1141 5.86328 83.9239 6.17586 83.7942C6.48843 83.6644 6.82354 83.5977 7.16197 83.5977Z" fill="#404040"/>
<path opacity="0.2" d="M55.4145 91.4707H4.58984V98.2567H55.4145V91.4707Z" fill="#FDF6E6"/>
<path opacity="0.2" d="M55.4145 102.768H4.58984V109.554H55.4145V102.768Z" fill="#FDF6E6"/>
</svg>
