<svg width="108" height="107" viewBox="0 0 108 107" fill="none" xmlns="http://www.w3.org/2000/svg">
<path d="M95.9439 57.5864C101.937 55.9669 104.593 45.1298 96.5897 42.8728C87.5488 40.3272 76.4156 42.8728 67.2112 43.2303C62.8414 43.3939 60.0215 42.9675 60.5984 39.1125C61.128 35.5547 63.7412 25.4455 62.9964 22.3529C62.3334 19.6135 60.9557 16.3485 59.7761 13.7383C58.2392 10.3528 53.8005 5.17977 49.4868 6.11015C44.0709 7.27742 44.5573 13.8159 45.1385 18.0456C45.78 22.7405 46.2493 24.8554 44.3722 29.4513C42.8525 33.1728 41.3586 35.3479 39.5461 38.152C34.9697 45.2504 32.8559 52.7967 25.6576 52.9949C23.9786 53.0465 22.3469 51.8017 22.3513 51.7974C23.0831 50.2813 22.0886 48.0975 20.4656 47.6538C16.6254 46.6072 11.4721 44.5569 9.76723 48.7177C8.06238 52.8786 6.96887 58.7279 6.64167 63.3366C6.25015 69.5464 6.35957 75.7777 6.96887 81.9699C7.39938 86.6304 8.54887 92.4323 10.5852 96.6707C12.5527 100.754 15.209 101.503 19.3592 101.198C21.374 101.047 22.6096 100.965 23.4146 98.9018C23.871 97.7346 23.7031 95.0468 23.3544 94.0691C23.1908 93.6168 28.047 92.975 30.1608 93.4962C32.7913 94.1466 34.0355 96.7353 36.5885 97.9025C40.4631 99.6728 45.5777 99.8537 49.7322 99.9313C63.7541 100.194 78.0731 98.1481 82.9121 97.0411C91.092 95.1674 94.6265 89.8695 89.5981 85.3684C95.8621 84.9376 97.5368 75.5736 92.8872 72.2269C99.5559 71.8004 102.376 60.8384 95.9439 57.5864Z" fill="#404040"/>
<path d="M95.9439 57.5864C101.937 55.9669 104.593 45.1298 96.5897 42.8728C87.5488 40.3272 76.4156 42.8728 67.2112 43.2303C62.8414 43.3939 60.0215 42.9675 60.5984 39.1125C61.128 35.5547 63.7412 25.4455 62.9964 22.3529C62.3334 19.6135 60.9558 16.3485 59.7761 13.7383C58.2392 10.3528 53.8005 5.17977 49.4868 6.11015C44.0709 7.27742 44.5573 13.8159 45.1385 18.0456C45.78 22.7405 46.2493 24.8554 44.3722 29.4513C42.8525 33.1728 41.3586 35.3479 39.5461 38.152C34.9697 45.2504 32.8559 52.7967 25.6576 52.9949C23.9786 53.0465 22.3469 51.8017 22.3513 51.7974C23.0831 50.2813 22.0886 48.0975 20.4656 47.6538C16.6254 46.6072 11.4721 44.5569 9.76723 48.7177C8.06238 52.8786 6.96887 58.7279 6.64167 63.3366C6.25015 69.5464 6.35957 75.7777 6.96887 81.9699C7.39938 86.6304 8.54887 92.4323 10.5852 96.6707C12.5527 100.754 15.209 101.503 19.3592 101.198C21.374 101.047 22.6096 100.965 23.4146 98.9018C23.871 97.7346 23.7031 95.0468 23.3544 94.0691C23.1908 93.6168 28.047 92.975 30.1608 93.4962C32.7913 94.1466 34.0355 96.7353 36.5885 97.9025C40.4631 99.6728 45.5777 99.8537 49.7322 99.9313C63.7541 100.194 78.0731 98.1481 82.9121 97.0411C91.092 95.1674 94.6265 89.8695 89.5981 85.3684C95.8621 84.9376 97.5368 75.5736 92.8872 72.2269C99.5559 71.8004 102.376 60.8384 95.9439 57.5864Z" stroke="#404040" stroke-width="11.1985" stroke-miterlimit="10"/>
<path d="M95.9439 57.5864C101.937 55.9669 104.593 45.1298 96.5897 42.8728C87.5488 40.3272 76.4156 42.8728 67.2112 43.2303C62.8414 43.3939 60.0215 42.9675 60.5984 39.1125C61.128 35.5547 63.7412 25.4455 62.9964 22.3529C62.3334 19.6135 60.9558 16.3485 59.7761 13.7383C58.2392 10.3528 53.8005 5.17977 49.4868 6.11015C44.0709 7.27742 44.5573 13.8159 45.1385 18.0456C45.78 22.7405 46.2493 24.8554 44.3722 29.4513C42.8525 33.1728 41.3586 35.3479 39.5461 38.152C34.9697 45.2504 32.8559 52.7967 25.6576 52.9949C23.9786 53.0465 22.3469 51.8017 22.3513 51.7974C23.0831 50.2813 22.0886 48.0975 20.4656 47.6538C16.6254 46.6072 11.4721 44.5569 9.76723 48.7177C8.06238 52.8786 6.96887 58.7279 6.64167 63.3366C6.25015 69.5464 6.35957 75.7777 6.96887 81.9699C7.39938 86.6304 8.54887 92.4323 10.5852 96.6707C12.5527 100.754 15.209 101.503 19.3592 101.198C21.374 101.047 22.6096 100.965 23.4146 98.9018C23.871 97.7346 23.7031 95.0468 23.3544 94.0691C23.1908 93.6168 28.047 92.975 30.1608 93.4962C32.7913 94.1466 34.0355 96.7353 36.5885 97.9025C40.4631 99.6728 45.5777 99.8537 49.7322 99.9313C63.7541 100.194 78.0731 98.1481 82.9121 97.0411C91.092 95.1674 94.6265 89.8695 89.5981 85.3684C95.8621 84.9376 97.5368 75.5736 92.8872 72.2269C99.5559 71.8004 102.376 60.8384 95.9439 57.5864Z" stroke="#F4F5FD" stroke-width="2.79571" stroke-miterlimit="10"/>
<path d="M22.1065 49.082C20.8464 54.9809 20.1986 60.9941 20.1735 67.0261C20.1391 73.4181 20.6428 77.2516 21.7707 85.7068C22.0807 88.0112 22.6016 91.5647 23.1785 93.9639" stroke="#F4F5FD" stroke-width="2.79571" stroke-miterlimit="10"/>
</svg>
