<svg width="617" height="510" viewBox="0 0 617 510" fill="none" xmlns="http://www.w3.org/2000/svg">
<g clip-path="url(#clip0_503_4886)">
<path d="M582.512 318.649H539.939C539.394 318.649 538.872 318.866 538.486 319.251C538.101 319.636 537.885 320.159 537.885 320.704V333.748C537.885 334.017 537.938 334.283 538.041 334.532C538.145 334.78 538.296 335.005 538.487 335.195C538.678 335.384 538.905 335.534 539.154 335.636C539.403 335.737 539.67 335.788 539.939 335.786H542.711C541.684 337.596 540.119 340.515 540.51 340.515C542.924 339.088 545.244 337.509 547.456 335.786H582.512C583.054 335.786 583.574 335.572 583.959 335.19C584.343 334.808 584.562 334.29 584.566 333.748V320.704C584.562 320.16 584.344 319.64 583.96 319.256C583.575 318.872 583.055 318.654 582.512 318.649V318.649Z" stroke="#263238" stroke-width="1.63051" stroke-linecap="round" stroke-linejoin="round"/>
<path d="M571.555 343.467H614.127C614.398 343.465 614.666 343.516 614.916 343.619C615.166 343.721 615.394 343.873 615.585 344.064C615.776 344.255 615.927 344.482 616.03 344.733C616.132 344.983 616.184 345.251 616.182 345.521V358.565C616.184 358.836 616.132 359.104 616.03 359.354C615.927 359.604 615.776 359.832 615.585 360.023C615.394 360.214 615.166 360.365 614.916 360.468C614.666 360.57 614.398 360.622 614.127 360.62H611.437C612.448 362.43 614.03 365.348 613.638 365.348C611.224 363.922 608.904 362.343 606.692 360.62H571.636C571.092 360.62 570.569 360.403 570.184 360.018C569.798 359.633 569.582 359.11 569.582 358.565V345.521C569.582 344.99 569.787 344.48 570.155 344.097C570.522 343.714 571.024 343.488 571.555 343.467V343.467Z" stroke="#263238" stroke-width="1.63051" stroke-linecap="round" stroke-linejoin="round"/>
<path d="M571.555 291.86H614.127C614.398 291.858 614.666 291.91 614.916 292.012C615.166 292.115 615.394 292.266 615.585 292.457C615.776 292.649 615.927 292.876 616.03 293.126C616.132 293.376 616.184 293.644 616.182 293.915V306.959C616.182 307.228 616.129 307.494 616.025 307.743C615.922 307.991 615.77 308.216 615.579 308.406C615.388 308.595 615.162 308.745 614.912 308.847C614.663 308.948 614.396 308.999 614.127 308.997H611.437C612.448 310.807 614.03 313.726 613.638 313.726C611.224 312.299 608.904 310.72 606.692 308.997H571.636C571.094 308.997 570.574 308.783 570.19 308.401C569.805 308.019 569.586 307.501 569.582 306.959V293.915C569.582 293.384 569.787 292.873 570.155 292.49C570.522 292.107 571.024 291.881 571.555 291.86V291.86Z" stroke="#263238" stroke-width="1.63051" stroke-linecap="round" stroke-linejoin="round"/>
<path d="M63.5875 215.455C63.8901 214.003 63.8584 212.5 63.4947 211.062C63.131 209.623 62.4449 208.286 61.4882 207.152C60.5315 206.018 59.3293 205.116 57.9727 204.515C56.6161 203.914 55.1405 203.63 53.6577 203.683C47.8205 203.683 42.6681 213.466 42.6681 213.466C42.6681 213.466 35.7547 206.537 29.624 205.933C23.4933 205.33 17.9659 211.933 20.8193 220.608C24.9934 233.032 44.0214 241.217 44.0214 241.217C44.0214 241.217 61.2558 229.282 63.5875 215.455Z" stroke="#263238" stroke-width="1.63051" stroke-linecap="round" stroke-linejoin="round"/>
<path d="M22.4994 239.684C22.3411 238.917 22.0124 238.194 21.5375 237.57C21.0626 236.946 20.4536 236.437 19.7555 236.08C19.0574 235.724 18.2881 235.528 17.5043 235.508C16.7206 235.489 15.9424 235.646 15.2273 235.967C12.3902 237.206 11.8522 242.946 11.8522 242.946C11.8522 242.946 7.04217 240.989 3.94421 241.935C0.846244 242.88 -0.523381 247.25 2.65611 250.902C7.23783 256.169 18.1785 256.299 18.1785 256.299C18.1785 256.299 24.1951 246.94 22.4994 239.684Z" stroke="#263238" stroke-width="1.63051" stroke-linecap="round" stroke-linejoin="round"/>
<path d="M32.9514 247.837C16.6464 264.647 27.3099 288.062 44.4954 287.768C63.9473 287.458 62.431 255.859 53.2186 270.403C44.0063 284.947 66.9964 309.535 78.9969 295.366" stroke="#263238" stroke-width="1.63051" stroke-linecap="round" stroke-linejoin="round"/>
<path d="M410.721 94.9123C410.721 55.4703 368.23 23.4961 315.826 23.4961C263.421 23.4961 220.914 55.4377 220.914 94.9123C220.914 132.088 258.677 162.627 306.907 166.002L315.826 189.27L324.728 166.002C372.975 162.627 410.721 132.072 410.721 94.9123Z" fill="white" stroke="#263238" stroke-width="1.63051" stroke-linecap="round" stroke-linejoin="round"/>
<path d="M322.53 83.8732V72.4596L316.318 72.0194C315.715 69.6273 314.764 67.3366 313.497 65.2202L317.557 60.4754L309.518 52.437L304.774 56.497C302.657 55.2846 300.378 54.3787 298.007 53.8067L297.518 47.5781H286.104L285.664 53.8067C283.287 54.4146 281.008 55.359 278.897 56.6111L274.153 52.5512L266.114 60.5896L270.174 65.2202C268.924 67.3394 267.99 69.63 267.402 72.0194L261.174 72.5249V83.9384L267.402 84.4276C268.003 86.8075 268.948 89.087 270.207 91.1942L266.147 95.9552L274.185 103.977L278.93 99.9174C281.024 101.18 283.293 102.125 285.664 102.722L286.153 108.95H297.567L298.056 102.722C300.438 102.128 302.719 101.183 304.822 99.9174L309.567 103.977L317.606 95.9552L313.546 91.1942C314.799 89.0648 315.733 86.763 316.318 84.3623L322.53 83.8732ZM291.86 89.1234C289.7 89.1202 287.59 88.4768 285.795 87.2744C284.001 86.0721 282.603 84.3648 281.779 82.3683C280.954 80.3719 280.74 78.1759 281.164 76.0578C281.587 73.9398 282.629 71.9947 284.157 70.4686C285.686 68.9424 287.632 67.9036 289.751 67.4834C291.87 67.0632 294.065 67.2805 296.061 68.1078C298.056 68.9351 299.761 70.3353 300.961 72.1315C302.16 73.9276 302.801 76.0391 302.801 78.199C302.801 79.635 302.518 81.0569 301.968 82.3834C301.418 83.7099 300.611 84.9149 299.595 85.9295C298.579 86.9441 297.373 87.7485 296.046 88.2965C294.718 88.8446 293.296 89.1256 291.86 89.1234Z" fill="#92E3A9" stroke="#263238" stroke-width="1.63051" stroke-linecap="round" stroke-linejoin="round"/>
<path d="M370.499 97.8304V89.0257L365.689 88.6507C365.248 86.8151 364.545 85.0524 363.602 83.4167L366.733 79.7481L360.537 73.5359L356.77 76.6338C355.145 75.6623 353.388 74.9319 351.553 74.4653L351.161 69.6553H342.406L342.031 74.4653C340.179 74.9294 338.405 75.6598 336.764 76.6338L333.095 73.5033L326.883 79.7155L330.014 83.3841C329.043 85.0153 328.312 86.7781 327.845 88.6181L323.035 88.9931V97.8304L327.845 98.2054C328.306 100.047 329.037 101.811 330.014 103.439L326.883 107.124L333.095 113.32L336.764 110.19C338.395 111.161 340.158 111.891 341.998 112.358L342.373 117.168H351.161L351.553 112.358C353.388 111.892 355.145 111.161 356.77 110.19L360.455 113.32L366.651 107.124L363.602 103.423C364.575 101.793 365.306 100.03 365.771 98.1891L370.499 97.8304ZM346.775 101.89C345.105 101.89 343.472 101.395 342.083 100.467C340.694 99.5389 339.611 98.2198 338.972 96.6765C338.333 95.1332 338.166 93.435 338.492 91.7966C338.817 90.1582 339.622 88.6533 340.803 87.4721C341.984 86.2909 343.489 85.4865 345.128 85.1606C346.766 84.8347 348.464 85.002 350.007 85.6412C351.551 86.2805 352.87 87.3631 353.798 88.752C354.726 90.1409 355.221 91.7739 355.221 93.4444C355.221 94.5527 355.003 95.6502 354.578 96.674C354.153 97.6978 353.531 98.6278 352.747 99.4108C351.962 100.194 351.031 100.814 350.006 101.237C348.982 101.66 347.884 101.876 346.775 101.874V101.89Z" fill="#92E3A9"/>
<path opacity="0.5" d="M370.497 97.8294V89.0247L365.687 88.6497C365.246 86.8141 364.543 85.0515 363.6 83.4158L366.731 79.7471L360.535 73.5349L356.768 76.6329C355.143 75.6614 353.386 74.9309 351.551 74.4643L351.159 69.6543H342.404L342.029 74.4643C340.177 74.9284 338.403 75.6589 336.762 76.6329L333.093 73.5023L326.881 79.7145L330.012 83.3832C329.041 85.0143 328.31 86.7771 327.843 88.6171L323.033 88.9921V97.8294L327.843 98.2045C328.304 100.046 329.035 101.81 330.012 103.438L326.881 107.123L333.093 113.319L336.762 110.189C338.393 111.16 340.156 111.89 341.996 112.357L342.371 117.167H351.159L351.551 112.357C353.386 111.891 355.143 111.16 356.768 110.189L360.453 113.319L366.649 107.123L363.6 103.422C364.573 101.792 365.304 100.029 365.769 98.1882L370.497 97.8294ZM346.773 101.889C345.103 101.889 343.47 101.394 342.081 100.466C340.692 99.5379 339.61 98.2188 338.97 96.6755C338.331 95.1322 338.164 93.434 338.49 91.7956C338.816 90.1573 339.62 88.6523 340.801 87.4711C341.982 86.2899 343.487 85.4855 345.126 85.1596C346.764 84.8338 348.462 85.001 350.006 85.6403C351.549 86.2795 352.868 87.3621 353.796 88.751C354.724 90.14 355.219 91.7729 355.219 93.4434C355.219 94.5518 355.001 95.6493 354.576 96.6731C354.152 97.6969 353.529 98.6269 352.745 99.4099C351.96 100.193 351.029 100.813 350.004 101.236C348.98 101.659 347.882 101.875 346.773 101.873V101.889Z" fill="white"/>
<path d="M370.499 97.8304V89.0257L365.689 88.6507C365.248 86.8151 364.545 85.0524 363.602 83.4167L366.733 79.7481L360.537 73.5359L356.77 76.6338C355.145 75.6623 353.388 74.9319 351.553 74.4653L351.161 69.6553H342.406L342.031 74.4653C340.179 74.9294 338.405 75.6598 336.764 76.6338L333.095 73.5033L326.883 79.7155L330.014 83.3841C329.043 85.0153 328.312 86.7781 327.845 88.6181L323.035 88.9931V97.8304L327.845 98.2054C328.306 100.047 329.037 101.811 330.014 103.439L326.883 107.124L333.095 113.32L336.764 110.19C338.395 111.161 340.158 111.891 341.998 112.358L342.373 117.168H351.161L351.553 112.358C353.388 111.892 355.145 111.161 356.77 110.19L360.455 113.32L366.651 107.124L363.602 103.423C364.575 101.793 365.306 100.03 365.771 98.1891L370.499 97.8304ZM346.775 101.89C345.105 101.89 343.472 101.395 342.083 100.467C340.694 99.5389 339.611 98.2198 338.972 96.6765C338.333 95.1332 338.166 93.435 338.492 91.7966C338.817 90.1582 339.622 88.6533 340.803 87.4721C341.984 86.2909 343.489 85.4865 345.128 85.1606C346.766 84.8347 348.464 85.002 350.007 85.6412C351.551 86.2805 352.87 87.3631 353.798 88.752C354.726 90.1409 355.221 91.7739 355.221 93.4444C355.221 94.5527 355.003 95.6502 354.578 96.674C354.153 97.6978 353.531 98.6279 352.747 99.4108C351.962 100.194 351.031 100.814 350.006 101.237C348.982 101.66 347.884 101.876 346.775 101.874V101.89Z" stroke="#263238" stroke-width="1.63051" stroke-linecap="round" stroke-linejoin="round"/>
<path d="M329.116 128.402V122.092L325.659 121.815C325.304 120.491 324.755 119.227 324.028 118.065L326.278 115.424L321.827 110.956L319.186 113.206C318.018 112.479 316.749 111.93 315.419 111.576L315.142 108.103H308.832L308.555 111.576C307.226 111.93 305.956 112.479 304.788 113.206L302.147 110.956L297.696 115.424L300.011 118.065C299.285 119.227 298.735 120.491 298.38 121.815L294.924 122.092V128.402L298.38 128.68C298.735 130.009 299.285 131.278 300.011 132.446L297.761 135.087L302.212 139.555L304.903 137.289C306.071 138.015 307.34 138.564 308.669 138.919L308.946 142.376H315.256L315.533 138.919C316.862 138.564 318.132 138.015 319.3 137.289L321.941 139.555L326.393 135.087L324.142 132.446C324.869 131.278 325.418 130.009 325.773 128.68L329.116 128.402ZM312.06 131.321C310.856 131.324 309.678 130.97 308.675 130.303C307.673 129.636 306.891 128.686 306.428 127.574C305.966 126.462 305.844 125.238 306.078 124.057C306.313 122.875 306.892 121.79 307.744 120.939C308.595 120.087 309.68 119.508 310.862 119.273C312.043 119.039 313.267 119.161 314.379 119.623C315.491 120.086 316.441 120.868 317.108 121.87C317.775 122.873 318.129 124.051 318.126 125.255C318.126 126.864 317.487 128.407 316.349 129.544C315.212 130.682 313.669 131.321 312.06 131.321Z" fill="#92E3A9"/>
<path opacity="0.7" d="M329.116 128.402V122.092L325.659 121.815C325.304 120.491 324.755 119.227 324.028 118.065L326.278 115.424L321.827 110.956L319.186 113.206C318.018 112.479 316.749 111.93 315.419 111.576L315.142 108.103H308.832L308.555 111.576C307.226 111.93 305.956 112.479 304.788 113.206L302.147 110.956L297.696 115.424L300.011 118.065C299.285 119.227 298.735 120.491 298.38 121.815L294.924 122.092V128.402L298.38 128.68C298.735 130.009 299.285 131.278 300.011 132.446L297.761 135.087L302.212 139.555L304.903 137.289C306.071 138.015 307.34 138.564 308.669 138.919L308.946 142.376H315.256L315.533 138.919C316.862 138.564 318.132 138.015 319.3 137.289L321.941 139.555L326.393 135.087L324.142 132.446C324.869 131.278 325.418 130.009 325.773 128.68L329.116 128.402ZM312.06 131.321C310.856 131.324 309.678 130.97 308.675 130.303C307.673 129.636 306.891 128.686 306.428 127.574C305.966 126.462 305.844 125.238 306.078 124.057C306.313 122.875 306.892 121.79 307.744 120.939C308.595 120.087 309.68 119.508 310.862 119.273C312.043 119.039 313.267 119.161 314.379 119.623C315.491 120.086 316.441 120.868 317.108 121.87C317.775 122.873 318.129 124.051 318.126 125.255C318.126 126.864 317.487 128.407 316.349 129.544C315.212 130.682 313.669 131.321 312.06 131.321Z" fill="white"/>
<path d="M329.116 128.402V122.092L325.659 121.815C325.304 120.491 324.755 119.227 324.028 118.065L326.278 115.424L321.827 110.956L319.186 113.206C318.018 112.479 316.749 111.93 315.419 111.576L315.142 108.103H308.832L308.555 111.576C307.226 111.93 305.956 112.479 304.788 113.206L302.147 110.956L297.696 115.424L300.011 118.065C299.285 119.227 298.735 120.491 298.38 121.815L294.924 122.092V128.402L298.38 128.68C298.735 130.009 299.285 131.278 300.011 132.446L297.761 135.087L302.212 139.555L304.903 137.289C306.071 138.015 307.34 138.564 308.669 138.919L308.946 142.376H315.256L315.533 138.919C316.862 138.564 318.132 138.015 319.3 137.289L321.941 139.555L326.393 135.087L324.142 132.446C324.869 131.278 325.418 130.009 325.773 128.68L329.116 128.402ZM312.06 131.321C310.856 131.324 309.678 130.97 308.675 130.303C307.673 129.636 306.891 128.686 306.428 127.574C305.966 126.462 305.844 125.238 306.078 124.057C306.313 122.875 306.892 121.79 307.744 120.939C308.595 120.087 309.68 119.508 310.862 119.273C312.043 119.039 313.267 119.161 314.379 119.623C315.491 120.086 316.441 120.868 317.108 121.87C317.775 122.873 318.129 124.051 318.126 125.255C318.126 126.864 317.487 128.407 316.349 129.544C315.212 130.682 313.669 131.321 312.06 131.321V131.321Z" stroke="#263238" stroke-width="1.63051" stroke-linecap="round" stroke-linejoin="round"/>
<path d="M467.106 332.77L455.529 341.591C437.496 334.645 438.654 333.08 421.403 330.585C412.468 329.297 393.961 329.835 378.406 330.585C364.351 331.303 352.693 332.216 352.693 332.216C352.693 332.216 387.081 297.975 396.538 292.97C405.995 287.964 447.524 270.143 448.828 269.556C448.828 269.556 480.15 304.497 467.106 332.77Z" fill="#92E3A9"/>
<path opacity="0.2" d="M467.108 332.77L455.531 341.591C437.498 334.645 438.655 333.08 421.405 330.585C412.469 329.297 393.963 329.835 378.408 330.585C397.762 317.199 450.15 328.172 450.15 328.172C450.15 328.172 441.998 317.851 441.411 296.931C440.791 276.795 448.308 270.077 448.879 269.588C448.879 269.588 480.152 304.497 467.108 332.77Z" fill="#404040"/>
<path d="M352.693 332.313C352.693 332.313 387.081 298.073 396.538 293.067C405.995 288.061 448.861 269.637 448.861 269.637C448.861 269.637 480.15 304.497 467.106 332.77L455.529 341.591" stroke="#263238" stroke-width="1.63051" stroke-linecap="round" stroke-linejoin="round"/>
<path d="M517.961 279.045L465.426 326.737C440.772 305.752 448.713 274.153 448.713 274.153L467.594 260.881L490.421 244.869C498.026 248.479 505.063 253.181 511.308 258.826C517.227 264.647 521.303 271.724 517.961 279.045Z" fill="white"/>
<path opacity="0.2" d="M511.277 258.844C510.221 261.758 508.333 264.298 505.847 266.149C488.857 280.22 474.966 269.573 467.596 260.898L490.423 244.887C498.016 248.5 505.042 253.202 511.277 258.844Z" fill="#92E3A9"/>
<path d="M517.961 279.045L465.426 326.737C440.772 305.752 448.713 274.153 448.713 274.153L467.594 260.881L490.421 244.869C498.026 248.479 505.063 253.181 511.308 258.826C517.227 264.647 521.303 271.724 517.961 279.045Z" stroke="#263238" stroke-width="1.63051" stroke-linecap="round" stroke-linejoin="round"/>
<path d="M496.765 273.729C496.765 273.729 488.124 271.772 481.797 259.543C475.471 247.314 476.205 189.725 477.623 178.311C479.042 166.898 500.907 160.62 501.934 172.099C502.097 173.844 502.766 177.268 503.76 181.882C505.065 187.801 506.891 195.676 508.847 204.383C515.369 233.553 523.522 272.18 517.962 279.044" fill="white"/>
<path opacity="0.2" d="M508.85 204.384C499.181 197.291 492.414 183.758 492.414 183.758L503.828 181.883C505.067 187.802 506.893 195.661 508.85 204.384Z" fill="#92E3A9"/>
<path d="M496.765 273.729C496.765 273.729 488.124 271.772 481.797 259.543C475.471 247.314 476.205 189.725 477.623 178.311C479.042 166.898 500.907 160.62 501.934 172.099C502.097 173.844 502.766 177.268 503.76 181.882C505.065 187.801 506.891 195.676 508.847 204.383C515.369 233.553 523.522 272.18 517.962 279.044" stroke="#263238" stroke-width="1.63051" stroke-linecap="round" stroke-linejoin="round"/>
<path d="M564.675 101.875C564.675 101.875 564.675 102.005 564.675 102.185C563.827 111.429 552.511 109.685 537.592 112.261C526.179 114.218 511.374 123.414 500.466 131.175C491.873 137.273 485.791 142.474 485.791 142.474C485.791 142.474 473.269 134.142 461.953 110.973C461.953 110.973 502.911 85.2599 507.689 53.4487C511.455 28.5019 547.604 52.9432 561.202 87.0534C563.811 93.82 564.903 98.5485 564.675 101.875Z" fill="white"/>
<path opacity="0.15" d="M564.628 102.183C563.78 111.427 552.464 109.683 537.545 112.259C526.132 114.216 511.327 123.412 500.419 131.173C495.446 128.238 492.706 125.401 493.815 123.02C498.853 111.851 517.8 108.264 517.8 108.264C517.8 108.264 516.169 100.943 519.137 97.4051C522.104 93.8669 532.947 100.943 548.486 106.454C562.345 111.33 564.367 103.797 564.628 102.183Z" fill="#404040"/>
<path d="M564.675 101.875C564.675 101.875 564.675 102.005 564.675 102.185C563.827 111.429 552.511 109.685 537.592 112.261C526.179 114.218 511.374 123.414 500.466 131.175C491.873 137.273 485.791 142.474 485.791 142.474C485.791 142.474 473.269 134.142 461.953 110.973C461.953 110.973 502.911 85.2599 507.689 53.4487C511.455 28.5019 547.604 52.9432 561.202 87.0534C563.811 93.82 564.903 98.5485 564.675 101.875Z" stroke="#263238" stroke-width="1.63051" stroke-linecap="round" stroke-linejoin="round"/>
<path d="M522.004 74.1067C532.032 70.3239 535.896 63.5084 537.82 65.0411C539.744 66.5738 546.722 71.5631 545.581 74.5959C544.44 77.6286 535.456 87.9986 534.559 89.8737" stroke="#263238" stroke-width="1.63051" stroke-linecap="round" stroke-linejoin="round"/>
<path d="M517.341 47.5127C511.944 48.0182 512.662 62.1873 525.885 79.6826C539.108 97.1779 552.169 105.118 557.957 103.129C563.745 101.14 559.734 93.5256 559.734 93.5256" stroke="#263238" stroke-width="1.63051" stroke-linecap="round" stroke-linejoin="round"/>
<path d="M504.494 131.289C504.494 131.289 479.368 150.285 474.004 150.106C468.639 149.926 461.351 149.796 454.324 140.42C448.894 133.165 449.693 126.903 451.258 122.485C451.665 121.33 452.133 120.198 452.66 119.093C453.753 116.713 474.558 95.7607 474.558 95.7607L479.727 97.1304C479.727 97.1304 483.086 115.93 503.565 128.974L504.494 131.289Z" fill="#92E3A9"/>
<path opacity="0.2" d="M504.494 131.289C504.494 131.289 479.368 150.284 474.004 150.105C468.639 149.926 461.351 149.795 454.324 140.42C448.894 133.164 449.693 126.903 451.258 122.484C452.563 127.588 455.074 134.909 459.101 137.811C465.541 142.474 492.331 127.49 492.331 127.49C492.331 127.49 477.46 109.245 479.727 97.1299C479.727 97.1299 483.086 115.93 503.565 128.974L504.494 131.289Z" fill="#404040"/>
<path d="M504.494 131.289C504.494 131.289 479.368 150.285 474.004 150.106C468.639 149.926 461.351 149.796 454.324 140.42C448.894 133.165 449.693 126.903 451.258 122.485C451.665 121.33 452.133 120.198 452.66 119.093C453.753 116.713 474.558 95.7607 474.558 95.7607L479.727 97.1304C479.727 97.1304 483.086 115.93 503.565 128.974L504.494 131.289Z" stroke="#263238" stroke-width="1.63051" stroke-linecap="round" stroke-linejoin="round"/>
<path opacity="0.15" d="M517.341 47.5127C511.944 48.0182 512.662 62.1873 525.885 79.6826C539.108 97.1779 552.169 105.118 557.957 103.129C563.745 101.14 559.734 93.5256 559.734 93.5256C556.599 82.7878 550.961 72.9471 543.283 64.8124C528.282 48.7193 517.341 47.5127 517.341 47.5127Z" fill="#404040"/>
<path d="M524.712 160.702C524.125 167.942 504.803 194.307 492.33 188.6L524.712 160.702Z" fill="white"/>
<path d="M524.712 160.702C524.125 167.942 504.803 194.307 492.33 188.6" stroke="#263238" stroke-width="1.63051" stroke-linecap="round" stroke-linejoin="round"/>
<path d="M477.85 147.969C477.85 147.969 487.796 175.688 494.97 180.71C502.144 185.732 520.699 170.356 519.02 167.666C517.34 164.976 499.454 148.393 496.6 134.844C496.6 134.925 488.154 136.099 477.85 147.969Z" fill="#92E3A9"/>
<path opacity="0.2" d="M477.85 147.968C477.85 147.968 487.796 175.687 494.97 180.709C502.144 185.731 520.699 170.355 519.02 167.665C517.34 164.975 499.454 148.392 496.6 134.843C496.6 134.924 488.154 136.098 477.85 147.968Z" fill="#404040"/>
<path d="M477.85 147.969C477.85 147.969 487.796 175.688 494.97 180.71C502.144 185.732 520.699 170.356 519.02 167.666C517.34 164.976 499.454 148.393 496.6 134.844C496.6 134.925 488.154 136.099 477.85 147.969Z" stroke="#263238" stroke-width="1.63051" stroke-linecap="round" stroke-linejoin="round"/>
<path d="M524.302 163.05C525.933 157.344 521.856 158.876 522.525 153.528C523.193 148.18 519.737 148.18 518.644 142.636C517.552 137.093 514.144 137.647 512.122 133.082C510.1 128.516 505.16 130.342 500.334 132.576C495.507 134.81 489.018 145.392 489.018 145.392C488.072 152.224 493.779 150.805 493.779 150.805C489.98 157.8 496.306 159.349 496.306 159.349C495.964 166.882 500.513 165.871 500.513 165.871C500.444 166.838 500.741 167.795 501.345 168.553C501.949 169.311 502.816 169.815 503.774 169.964C505.926 170.355 522.606 168.725 524.302 163.05Z" fill="white" stroke="#263238" stroke-width="1.63051" stroke-linecap="round" stroke-linejoin="round"/>
<path d="M493.814 150.774C493.814 150.774 503.027 140.99 505.848 139.931" stroke="#263238" stroke-width="1.63051" stroke-linecap="round" stroke-linejoin="round"/>
<path d="M496.34 159.317C500.476 155.102 505.54 151.914 511.129 150.007" stroke="#263238" stroke-width="1.63051" stroke-linecap="round" stroke-linejoin="round"/>
<path d="M500.564 165.904C500.564 165.904 512.793 159.887 514.603 159.382" stroke="#263238" stroke-width="1.63051" stroke-linecap="round" stroke-linejoin="round"/>
<path d="M484.373 187.313C484.373 187.313 475.405 179.014 473.775 175.476C472.144 171.937 469.014 156.79 471.248 152.649C473.481 148.507 480.085 141.855 481.112 138.594C482.139 135.333 487.846 142.474 481.324 155.518C481.324 155.518 489.118 164.943 487.846 175.28" fill="white"/>
<path d="M484.373 187.313C484.373 187.313 475.405 179.014 473.775 175.476C472.144 171.937 469.014 156.79 471.248 152.649C473.481 148.507 480.085 141.855 481.112 138.594C482.139 135.333 487.846 142.474 481.324 155.518C481.324 155.518 489.118 164.943 487.846 175.28" stroke="#263238" stroke-width="1.63051" stroke-linecap="round" stroke-linejoin="round"/>
<path opacity="0.15" d="M564.674 101.875C564.674 101.875 564.674 102.005 564.674 102.185C564.683 102.082 564.683 101.978 564.674 101.875Z" fill="#404040"/>
<path d="M479.04 428.66C479.04 428.66 475.453 430.111 470.284 423.655C460.501 411.361 445.745 381.832 436.044 367.679C431.902 361.614 420.456 355.646 408.08 350.641C394.854 345.493 381.342 341.111 367.611 337.515C367.611 337.515 419.69 334.254 432.832 338.281C444.245 341.705 484.812 364.891 496.421 371.56L499.519 373.353C499.519 373.353 501.296 397.844 479.04 428.66Z" fill="#92E3A9"/>
<path opacity="0.2" d="M479.042 428.66C479.042 428.66 475.455 430.111 470.286 423.655C460.503 411.361 445.747 381.832 436.045 367.679C431.904 361.614 420.458 355.646 408.082 350.641C455.367 361.435 472.063 408.85 472.063 408.85C472.063 408.85 474.574 381.93 496.423 371.495L499.521 373.288C499.521 373.288 501.298 397.844 479.042 428.66Z" fill="#404040"/>
<path d="M367.611 337.515C367.611 337.515 419.69 334.254 432.832 338.281C445.973 342.309 499.47 373.353 499.47 373.353C499.47 373.353 501.215 397.909 478.959 428.791" stroke="#263238" stroke-width="1.63051" stroke-linecap="round" stroke-linejoin="round"/>
<path d="M565.899 449.824C563.209 451.65 558.056 451.634 551.518 450.427C544.512 448.993 537.618 447.053 530.892 444.623C512.664 437.964 494.801 430.344 477.379 421.796C477.379 421.796 477.46 388.338 497.124 375.375C497.124 375.375 522.625 392.838 539.045 397.159C552.741 400.86 565.899 449.824 565.899 449.824Z" fill="white"/>
<path opacity="0.2" d="M551.519 450.428C544.513 448.993 537.619 447.053 530.893 444.623C527.225 427.682 537.888 408.85 537.888 408.85C538.355 423.729 543.086 438.16 551.519 450.428Z" fill="#92E3A9"/>
<path d="M565.899 449.824C563.209 451.65 558.056 451.634 551.518 450.427C544.512 448.993 537.618 447.053 530.892 444.623C512.664 437.964 494.801 430.344 477.379 421.796C477.379 421.796 477.46 388.338 497.124 375.375C497.124 375.375 522.625 392.838 539.045 397.159C552.741 400.86 565.899 449.824 565.899 449.824Z" stroke="#263238" stroke-width="1.63051" stroke-linecap="round" stroke-linejoin="round"/>
<path d="M542.42 440.237C540.75 435.997 539.617 431.566 539.045 427.046L542.42 440.237Z" fill="white"/>
<path d="M542.42 440.237C540.75 435.997 539.617 431.566 539.045 427.046" stroke="#263238" stroke-width="1.63051" stroke-linecap="round" stroke-linejoin="round"/>
<path d="M542.436 383.658C549.675 384.8 556.327 400.387 560.811 405.931C560.811 405.931 573.578 411.882 575.763 417.508C577.948 423.133 586.639 445.601 569.372 450.215C559.442 452.873 552.023 452.417 546.871 447.15" fill="white"/>
<path d="M542.436 383.658C549.675 384.8 556.327 400.387 560.811 405.931C560.811 405.931 573.578 411.882 575.763 417.508C577.948 423.133 586.639 445.601 569.372 450.215C559.442 452.873 552.023 452.417 546.871 447.15" stroke="#263238" stroke-width="1.63051" stroke-linecap="round" stroke-linejoin="round"/>
<path d="M544.067 361.5V361.973C543.985 366.766 542.632 376.272 539.583 393.115C536.729 408.866 536.191 410.089 534.284 410.888C531.952 411.85 515.239 415.567 508.114 417.1L506.565 417.426C505.538 417.654 502.831 416.236 503.01 415.209C503.858 410.007 509.663 363.032 511.995 361.402C515.533 359.087 538.409 356.902 540.952 357.603C541.734 357.972 542.421 358.515 542.961 359.191C543.5 359.866 543.879 360.656 544.067 361.5Z" fill="#999999"/>
<path opacity="0.2" d="M544.066 361.973C543.984 366.766 542.631 376.272 539.582 393.115C536.729 408.866 536.191 410.089 534.283 410.888C531.951 411.85 515.239 415.567 508.113 417.1C508.977 410.301 511.586 391.305 516.967 365.283L544.066 361.973Z" fill="#404040"/>
<path d="M544.067 361.5V361.973C543.985 366.766 542.632 376.272 539.583 393.115C536.729 408.866 536.191 410.089 534.284 410.888C531.952 411.85 515.239 415.567 508.114 417.1L506.565 417.426C505.538 417.654 502.831 416.236 503.01 415.209C503.858 410.007 509.663 363.032 511.995 361.402C515.533 359.087 538.409 356.902 540.952 357.603C541.734 357.972 542.421 358.515 542.961 359.191C543.5 359.866 543.879 360.656 544.067 361.5V361.5Z" stroke="#263238" stroke-width="1.63051" stroke-linecap="round" stroke-linejoin="round"/>
<path d="M507.787 413.806C507.787 413.806 515.385 369.522 516.07 366.799C516.755 364.076 517.44 365.168 540.267 362.185" stroke="#263238" stroke-width="1.63051" stroke-linecap="round" stroke-linejoin="round"/>
<path d="M539.042 426.982C539.042 426.982 527.221 431.205 528.037 423.998C527.253 423.431 526.603 422.699 526.132 421.854C525.662 421.009 525.383 420.071 525.314 419.106C525.472 416.908 526.124 414.774 527.221 412.862C527.221 412.862 522.737 420.607 518.922 416.123C517.927 414.949 521.987 406.535 521.987 406.535C521.514 406.846 520.975 407.043 520.412 407.111C519.85 407.179 519.279 407.116 518.746 406.926C518.212 406.737 517.729 406.426 517.335 406.019C516.942 405.612 516.648 405.119 516.476 404.579C515.938 403.291 522.167 391.714 523.536 390.85C528.102 387.98 539.988 381.849 544.064 384.181C548.141 386.513 549.494 393.834 551.94 396.557C554.385 399.28 553.032 408.508 551.94 415.03" fill="white"/>
<path d="M539.042 426.982C539.042 426.982 527.221 431.205 528.037 423.998C527.253 423.431 526.603 422.699 526.132 421.854C525.662 421.009 525.383 420.071 525.314 419.106C525.472 416.908 526.124 414.774 527.221 412.862C527.221 412.862 522.737 420.607 518.922 416.123C517.927 414.949 521.987 406.535 521.987 406.535C521.514 406.846 520.975 407.043 520.412 407.111C519.85 407.179 519.279 407.116 518.746 406.926C518.212 406.737 517.729 406.426 517.335 406.019C516.942 405.612 516.648 405.119 516.476 404.579C515.938 403.291 522.167 391.714 523.536 390.85C528.102 387.98 539.988 381.849 544.064 384.181C548.141 386.513 549.494 393.834 551.94 396.557C554.385 399.28 553.032 408.508 551.94 415.03" stroke="#263238" stroke-width="1.63051" stroke-linecap="round" stroke-linejoin="round"/>
<path d="M521.988 406.534C521.988 406.534 526.26 399.132 527.483 398.186C528.706 397.24 539.043 394.24 539.043 394.24" fill="white"/>
<path d="M521.988 406.534C521.988 406.534 526.26 399.132 527.483 398.186C528.706 397.24 539.043 394.24 539.043 394.24" stroke="#263238" stroke-width="1.63051" stroke-linecap="round" stroke-linejoin="round"/>
<path d="M527.223 412.861C529.799 410.008 531.299 406.714 532.375 406.535C533.451 406.355 541.75 405.116 542.435 404.904" fill="white"/>
<path d="M527.223 412.861C529.799 410.008 531.299 406.714 532.375 406.535C533.451 406.355 541.75 405.116 542.435 404.904" stroke="#263238" stroke-width="1.63051" stroke-linecap="round" stroke-linejoin="round"/>
<path d="M527.596 423.654C530.482 420.393 534.966 416.936 535.911 416.936C536.857 416.936 542.156 416.252 542.433 416.121" fill="white"/>
<path d="M527.596 423.654C530.482 420.393 534.966 416.936 535.911 416.936C536.857 416.936 542.156 416.252 542.433 416.121" stroke="#263238" stroke-width="1.63051" stroke-linecap="round" stroke-linejoin="round"/>
<path d="M540.953 425.366C540.095 426.035 539.105 426.514 538.048 426.77C536.99 427.025 535.891 427.053 534.822 426.85" fill="white"/>
<path d="M540.953 425.366C540.095 426.035 539.105 426.514 538.048 426.77C536.99 427.025 535.891 427.053 534.822 426.85" stroke="#263238" stroke-width="1.63051" stroke-linecap="round" stroke-linejoin="round"/>
<path d="M539.045 426.981C539.045 426.981 549.806 435.965 554.698 425.351L539.045 426.981Z" fill="white"/>
<path d="M539.045 426.981C539.045 426.981 549.806 435.965 554.698 425.351" stroke="#263238" stroke-width="1.63051" stroke-linecap="round" stroke-linejoin="round"/>
<path d="M275.553 331.564L263.895 331.254C248.014 330.863 220.768 330.276 214.311 330.683C206.171 331.466 198.216 333.587 190.767 336.961L164.467 301.09C168.478 251.376 200.175 245.93 200.175 245.93C200.175 245.93 222.562 271.48 230.714 278.442C238.867 285.404 275.553 331.564 275.553 331.564Z" fill="#92E3A9"/>
<path opacity="0.2" d="M263.814 331.254C247.932 330.863 220.687 330.276 214.23 330.683C206.117 331.475 198.191 333.596 190.767 336.961L164.467 301.09C168.478 251.376 200.175 245.93 200.175 245.93C200.175 245.93 202.034 276.29 177.788 297.111C177.788 297.111 185.288 318.177 201.659 322.352C218.029 326.526 249.905 323.102 263.814 331.254Z" fill="#404040"/>
<path d="M275.553 331.564C275.553 331.564 238.867 285.404 230.714 278.442C222.562 271.48 200.175 245.93 200.175 245.93C200.175 245.93 168.478 251.376 164.467 301.09L190.767 336.961" stroke="#263238" stroke-width="1.63051" stroke-linecap="round" stroke-linejoin="round"/>
<path d="M198.008 251.913C198.008 251.913 197.437 278.588 168.398 292.936L118.13 221.748C114.591 202.508 153.185 195.334 153.185 195.334L171.382 218.275L198.008 251.913Z" fill="white"/>
<path opacity="0.2" d="M171.398 218.356C154.425 231.775 135.527 217.296 135.527 217.296L153.267 195.415L171.398 218.356Z" fill="#92E3A9"/>
<path d="M198.008 251.913C198.008 251.913 197.437 278.588 168.398 292.936L118.13 221.748C114.591 202.508 153.185 195.334 153.185 195.334L171.382 218.275L198.008 251.913Z" stroke="#263238" stroke-width="1.63051" stroke-linecap="round" stroke-linejoin="round"/>
<path d="M118.129 221.749C116.075 217.346 118.129 206.667 121.782 194.291C125.972 180.089 132.25 163.621 136.864 151.898C139.408 145.376 141.446 140.272 142.31 137.778C146.125 126.902 165.789 138.316 164.387 149.729C162.985 161.143 167.077 201.368 157.963 211.689C148.848 222.01 140.027 221.798 140.027 221.798" fill="white"/>
<path opacity="0.2" d="M150.007 145.343C150.007 145.343 142.637 189.366 135.56 191.926C131.05 193.192 126.423 194 121.75 194.339C125.94 180.138 132.218 163.67 136.832 151.946L150.007 145.343Z" fill="#92E3A9"/>
<path d="M118.129 221.749C116.075 217.346 118.129 206.667 121.782 194.291C125.972 180.089 132.25 163.621 136.864 151.898C139.408 145.376 141.446 140.272 142.31 137.778C146.125 126.902 165.789 138.316 164.387 149.729C162.985 161.143 167.077 201.368 157.963 211.689C148.848 222.01 140.027 221.798 140.027 221.798" stroke="#263238" stroke-width="1.63051" stroke-linecap="round" stroke-linejoin="round"/>
<path d="M133.962 170.648C133.611 171.137 133.167 171.551 132.655 171.867C132.143 172.183 131.574 172.395 130.98 172.491C130.386 172.586 129.779 172.563 129.194 172.423C128.609 172.283 128.057 172.029 127.571 171.675L58.8774 122.043C58.3895 121.693 57.9757 121.25 57.6597 120.74C57.3438 120.23 57.1319 119.662 57.0364 119.069C56.941 118.476 56.9637 117.871 57.1034 117.287C57.243 116.703 57.4969 116.153 57.8502 115.668L125.043 22.7287C125.755 21.7458 126.828 21.0856 128.027 20.893C129.225 20.7004 130.451 20.9912 131.435 21.7014L200.128 71.2525C201.114 71.9621 201.777 73.0339 201.973 74.2324C202.168 75.4308 201.88 76.6579 201.172 77.6441L133.962 170.648Z" fill="#BFBFBF" stroke="#263238" stroke-width="1.63051" stroke-miterlimit="10"/>
<path d="M148.892 32.2194L142.924 40.4795L178.634 66.2817L184.602 58.0216L148.892 32.2194Z" fill="#92E3A9" stroke="#263238" stroke-width="1.63051" stroke-linecap="round" stroke-linejoin="round"/>
<path d="M129.003 27.3866L63.5898 117.917L130.001 165.902L195.414 75.3719L129.003 27.3866Z" fill="#92E3A9"/>
<path opacity="0.7" d="M129.003 27.3866L63.5898 117.917L130.001 165.902L195.414 75.3719L129.003 27.3866Z" fill="white"/>
<path d="M129.003 27.3866L63.5898 117.917L130.001 165.902L195.414 75.3719L129.003 27.3866Z" stroke="#263238" stroke-width="1.63051" stroke-linecap="round" stroke-linejoin="round"/>
<path d="M177.267 58.4535L173.648 63.4754C173.377 63.8448 172.971 64.0918 172.519 64.1621C172.066 64.2324 171.604 64.1203 171.235 63.8504L162.185 57.3284C162.476 56.5851 162.51 55.7662 162.282 55.0013C162.055 54.2364 161.579 53.5692 160.93 53.1052C160.28 52.6412 159.495 52.407 158.698 52.4395C157.9 52.472 157.137 52.7694 156.527 53.2848L147.462 46.7627C147.277 46.6302 147.121 46.4622 147.002 46.2685C146.883 46.0748 146.803 45.8594 146.768 45.6348C146.733 45.4101 146.744 45.1808 146.798 44.9602C146.853 44.7395 146.951 44.5319 147.087 44.3496L150.706 39.3439C150.838 39.1377 151.012 38.9614 151.216 38.8266C151.42 38.6918 151.651 38.6015 151.892 38.5615C152.133 38.5215 152.381 38.5328 152.617 38.5946C152.854 38.6563 153.075 38.7672 153.266 38.92L176.958 56.0403C177.317 56.3205 177.551 56.7312 177.609 57.1831C177.667 57.6351 177.544 58.0916 177.267 58.4535V58.4535Z" stroke="#263238" stroke-width="1.63051" stroke-linecap="round" stroke-linejoin="round"/>
<path d="M158.157 155.893C158.157 155.893 168.527 149.371 170.793 146.29C173.06 143.208 178.946 128.827 177.56 124.392C176.174 119.957 170.94 112.065 170.549 108.674C170.157 105.282 163.195 111.217 167.141 125.24C167.141 125.24 157.717 133.05 157.016 143.436" fill="white"/>
<path d="M158.157 155.893C158.157 155.893 168.527 149.371 170.793 146.29C173.06 143.208 178.946 128.827 177.56 124.392C176.174 119.957 170.94 112.065 170.549 108.674C170.157 105.282 163.195 111.217 167.141 125.24C167.141 125.24 157.717 133.05 157.016 143.436" stroke="#263238" stroke-width="1.63051" stroke-linecap="round" stroke-linejoin="round"/>
<path d="M152.548 95.7751C152.548 100.187 151.24 104.499 148.789 108.167C146.338 111.835 142.854 114.694 138.779 116.382C134.703 118.071 130.218 118.512 125.891 117.652C121.564 116.791 117.59 114.667 114.471 111.547C111.351 108.428 109.227 104.453 108.366 100.127C107.505 95.7998 107.947 91.3149 109.635 87.2392C111.324 83.1634 114.183 79.6798 117.851 77.2289C121.519 74.7779 125.831 73.4697 130.243 73.4697C133.173 73.4676 136.074 74.0431 138.781 75.1633C141.488 76.2834 143.948 77.9264 146.02 79.998C148.092 82.0697 149.734 84.5295 150.855 87.2366C151.975 89.9438 152.55 92.8453 152.548 95.7751Z" fill="white" stroke="#263238" stroke-width="1.63051" stroke-linecap="round" stroke-linejoin="round"/>
<path d="M119.158 87.7705L121.881 103.423L146.828 96.6568" fill="white"/>
<path d="M119.158 87.7705L121.881 103.423L146.828 96.6568" stroke="#263238" stroke-width="1.63051" stroke-linecap="round" stroke-linejoin="round"/>
<path d="M267.566 339.145C267.566 339.145 235.559 344.248 211.477 357.276C206.681 359.803 202.166 362.831 198.009 366.309C186.807 375.913 177.024 395.805 168.66 411.572C161.518 425.007 156.121 430.355 156.121 430.355C133.881 399.539 135.609 374.918 135.609 374.918L135.821 374.804C139.441 372.684 189.367 343.71 202.248 339.846C215.488 335.884 267.566 339.145 267.566 339.145Z" fill="#92E3A9"/>
<path opacity="0.2" d="M211.477 357.212C206.681 359.739 202.166 362.767 198.009 366.245C186.807 375.849 177.024 395.741 168.66 411.508C161.518 424.943 156.121 430.291 156.121 430.291C133.881 399.475 135.609 374.854 135.609 374.854L135.821 374.74C137.452 373.974 149.061 370.142 164.372 399.524C164.388 399.589 174.97 365.038 211.477 357.212Z" fill="#404040"/>
<path d="M103.96 303.828C103.96 303.828 89.9708 300.209 94.1775 313.318C98.3842 326.427 113.369 326.003 113.369 326.003" fill="white"/>
<path d="M103.96 303.828C103.96 303.828 89.9708 300.209 94.1775 313.318C98.3842 326.427 113.369 326.003 113.369 326.003" stroke="#263238" stroke-width="1.63051" stroke-linecap="round" stroke-linejoin="round"/>
<path d="M267.562 339.145C267.562 339.145 215.484 335.884 202.342 339.911C189.2 343.939 135.703 374.983 135.703 374.983C135.703 374.983 133.975 399.539 156.215 430.421" stroke="#263238" stroke-width="1.63051" stroke-linecap="round" stroke-linejoin="round"/>
<path d="M157.815 423.491C157.815 423.491 80.35 451.552 67.6973 436.307C71.3034 426.423 75.8346 416.902 81.2305 407.871C85.4209 401.251 90.2309 395.723 95.0572 394.452C102.197 392.39 109.205 389.896 116.042 386.984C127.781 382.092 138.07 377.07 138.07 377.07C157.718 390.033 157.815 423.491 157.815 423.491Z" fill="white"/>
<path opacity="0.2" d="M116.042 386.984C113.824 397.469 107.612 417.018 91.9592 415.779C85.8937 415.29 82.6979 412.159 81.2305 407.904C85.4209 401.284 90.2309 395.757 95.0572 394.485C102.198 392.413 109.206 389.908 116.042 386.984Z" fill="#92E3A9"/>
<path d="M157.815 423.491C157.815 423.491 80.35 451.552 67.6973 436.307C71.3034 426.423 75.8346 416.902 81.2305 407.871C85.4209 401.251 90.2309 395.723 95.0572 394.452C102.197 392.39 109.205 389.896 116.042 386.984C127.781 382.092 138.07 377.07 138.07 377.07C157.718 390.033 157.815 423.491 157.815 423.491Z" stroke="#263238" stroke-width="1.63051" stroke-linecap="round" stroke-linejoin="round"/>
<path d="M73.6475 439.665C55.4184 440.48 54.2608 397.565 63.4242 333.829C63.4242 333.829 77.4792 305.931 83.9686 305.556C85.7132 305.458 88.1264 305.409 90.7026 305.409C97.6975 305.409 105.98 305.556 105.98 305.556C105.98 305.556 109.731 321.714 109.763 327.209C109.763 335.362 106.192 336.373 106.192 336.373C106.388 344.134 100.111 344.916 93.3766 343.857C93.2587 344.2 93.0999 344.529 92.9038 344.835C92.007 346.335 89.6428 349.123 83.7077 349.873C83.6099 374.738 107.758 412.387 94.9745 420.604" fill="white"/>
<path opacity="0.2" d="M109.764 327.21C109.764 335.363 106.193 336.373 106.193 336.373C106.389 344.135 100.111 344.917 93.3772 343.857C93.2593 344.201 93.1005 344.53 92.9044 344.836L94.9751 338.591C96.0675 339.076 97.2927 339.174 98.4481 338.868C102.524 336.863 100.388 329.835 100.388 329.835C101.186 329.528 101.884 329.009 102.407 328.333C102.93 327.658 103.258 326.852 103.356 326.003C103.992 322.742 96.8339 320.623 96.8339 320.623C99.0677 316.889 94.0947 313.318 94.0947 313.318C95.8719 310.644 93.5566 307.709 90.6543 305.41C97.6492 305.41 105.932 305.557 105.932 305.557C105.932 305.557 109.731 321.715 109.764 327.21Z" fill="#92E3A9"/>
<path d="M73.6475 439.665C55.4184 440.48 54.2608 397.565 63.4242 333.829C63.4242 333.829 77.4792 305.931 83.9686 305.556C85.7132 305.458 88.1264 305.409 90.7026 305.409C97.6975 305.409 105.98 305.556 105.98 305.556C105.98 305.556 109.731 321.714 109.763 327.209C109.763 335.362 106.192 336.373 106.192 336.373C106.388 344.134 100.111 344.916 93.3766 343.857C93.2587 344.2 93.0999 344.529 92.9038 344.835C92.007 346.335 89.6428 349.123 83.7077 349.873C83.6099 374.738 107.758 412.387 94.9745 420.604" stroke="#263238" stroke-width="1.63051" stroke-linecap="round" stroke-linejoin="round"/>
<path d="M106.064 324.829C103.813 320.687 101.645 323.084 90.8184 320.459C94.9399 320.842 99.0947 320.644 103.161 319.872" stroke="#263238" stroke-width="1.63051" stroke-linecap="round" stroke-linejoin="round"/>
<path d="M89.5625 312.422C91.03 313.074 97.4052 312.601 100.389 312.422" stroke="#263238" stroke-width="1.63051" stroke-linecap="round" stroke-linejoin="round"/>
<path d="M93.3789 329.899C93.3789 329.59 102.493 330.356 103.977 331.432C105.461 332.508 106.39 336.552 106.39 336.552" stroke="#263238" stroke-width="1.63051" stroke-linecap="round" stroke-linejoin="round"/>
<path d="M100.389 338.591C99.7047 339.21 94.9762 338.591 94.9762 338.591C94.7703 340.434 94.2171 342.221 93.3457 343.857" stroke="#263238" stroke-width="1.63051" stroke-linecap="round" stroke-linejoin="round"/>
<path d="M150.007 298.644C150.007 312.014 144.545 323.656 136.491 329.771H110.68C102.609 323.656 97.1465 312.014 97.1465 298.644C97.1465 298.09 97.1465 297.552 97.1465 297.014H150.007C150.007 297.552 150.007 298.09 150.007 298.644Z" fill="#757575"/>
<path opacity="0.2" d="M130.244 328.237L130.13 329.77H110.678C102.607 323.655 97.1445 312.013 97.1445 298.643C97.1445 298.089 97.1445 297.551 97.1445 297.013H102.884C106.911 306.747 115.618 323.443 130.244 328.237Z" fill="#404040"/>
<path d="M150.007 298.644C150.007 312.014 144.545 323.656 136.491 329.771H110.68C102.609 323.656 97.1465 312.014 97.1465 298.644C97.1465 298.09 97.1465 297.552 97.1465 297.014H150.007C150.007 297.552 150.007 298.09 150.007 298.644Z" stroke="#263238" stroke-width="1.63051" stroke-linecap="round" stroke-linejoin="round"/>
<path d="M138.577 328.236H108.609L107.223 332.247H139.963L138.577 328.236Z" fill="#757575" stroke="#263238" stroke-width="1.63051" stroke-linecap="round" stroke-linejoin="round"/>
<path opacity="0.2" d="M139.963 332.247L138.577 328.236H108.609L107.223 332.247" fill="#404040"/>
<path d="M115.113 264.484C110.564 272.294 122.761 279.648 116.744 290.36" stroke="#263238" stroke-width="1.63051" stroke-linecap="round" stroke-linejoin="round"/>
<path d="M122.922 264.484C118.373 272.311 130.569 279.648 124.553 290.36" stroke="#263238" stroke-width="1.63051" stroke-linecap="round" stroke-linejoin="round"/>
<path d="M131.287 264.484C126.738 272.311 138.934 279.648 132.918 290.36" stroke="#263238" stroke-width="1.63051" stroke-linecap="round" stroke-linejoin="round"/>
<path d="M437.383 379.289C425.79 359.511 377.837 342.309 324.568 340.157H324.144L318.91 340.01H313.595L308.361 340.157H307.904C254.652 342.276 206.715 359.494 195.122 379.289C182.747 400.404 164.42 434.383 164.42 434.383C174.692 451.015 214.15 453.248 214.15 453.248L216.254 497.99H416.252L418.355 453.281C418.355 453.281 457.813 451.047 468.085 434.416C468.085 434.383 449.759 400.404 437.383 379.289Z" fill="#92E3A9" stroke="#263238" stroke-width="1.63051" stroke-linecap="round" stroke-linejoin="round"/>
<path d="M257.438 481.865C257.438 481.865 165.233 497.338 158.597 484.702C157.892 483.291 157.439 481.768 157.26 480.202C155.091 464.956 168.315 434.89 168.315 434.89C178.571 433.912 189.332 436.52 197.941 439.781C203.987 441.868 209.784 444.619 215.224 447.983L214.54 449.483L214.311 449.956L235.85 450.641L255.123 451.26H255.563L257.438 481.865Z" fill="white"/>
<path opacity="0.2" d="M214.458 449.482C193.359 449.89 185.354 452.743 185.354 452.743C188.705 447.653 192.973 443.23 197.941 439.699C203.991 441.812 209.788 444.59 215.224 447.982L214.458 449.482Z" fill="#92E3A9"/>
<path opacity="0.2" d="M257.438 481.863C257.438 481.863 165.233 497.337 158.597 484.701C157.892 483.29 157.439 481.767 157.26 480.2C159.53 481.128 161.937 481.679 164.385 481.831C176.451 482.255 237.301 474.738 237.301 474.738L235.769 450.705V449.922C241.606 450.215 248.03 450.656 255.09 451.324H255.53L257.438 481.863Z" fill="#92E3A9"/>
<path d="M257.438 481.865C257.438 481.865 165.233 497.338 158.597 484.702C157.892 483.291 157.439 481.768 157.26 480.202C155.091 464.956 168.315 434.89 168.315 434.89C178.571 433.912 189.332 436.52 197.941 439.781C203.987 441.868 209.784 444.619 215.224 447.983L214.54 449.483L214.311 449.956L235.85 450.641L255.123 451.26H255.563L257.438 481.865Z" stroke="#263238" stroke-width="1.63051" stroke-linecap="round" stroke-linejoin="round"/>
<path d="M214.23 450.021C214.23 450.021 192.446 449.434 183.25 453.689" stroke="#263238" stroke-width="1.63051" stroke-linecap="round" stroke-linejoin="round"/>
<path d="M410.232 443.776C410.232 443.776 401.688 404.285 418.238 385.176" stroke="#263238" stroke-width="1.63051" stroke-linecap="round" stroke-linejoin="round"/>
<path d="M424.73 404.839C424.73 404.839 413.528 412.991 411.49 426.182" stroke="#263238" stroke-width="1.63051" stroke-linecap="round" stroke-linejoin="round"/>
<path d="M214.23 380.577C223.471 401.076 225.711 424.046 220.606 445.944" stroke="#263238" stroke-width="1.63051" stroke-linecap="round" stroke-linejoin="round"/>
<path d="M203.256 394.24C203.256 394.24 215.207 401.512 220.604 412.861" stroke="#263238" stroke-width="1.63051" stroke-linecap="round" stroke-linejoin="round"/>
<path d="M352.693 344.853C352.693 344.853 335.018 389.969 282.418 365.511" stroke="#263238" stroke-width="1.63051" stroke-linecap="round" stroke-linejoin="round"/>
<path d="M434.643 375.44C426.946 380.541 421.137 388.028 418.109 396.751" stroke="#263238" stroke-width="1.63051" stroke-linecap="round" stroke-linejoin="round"/>
<path d="M197.83 375.44C204.083 379.246 209.009 384.889 211.934 391.599" stroke="#263238" stroke-width="1.63051" stroke-linecap="round" stroke-linejoin="round"/>
<path d="M275.555 343.384C275.555 343.384 281.408 367.401 315.029 367.956" stroke="#263238" stroke-width="1.63051" stroke-linecap="round" stroke-linejoin="round"/>
<path d="M384.993 367.956C384.993 367.956 322.48 429.002 278.195 431.22" stroke="#263238" stroke-width="1.63051" stroke-linecap="round" stroke-linejoin="round"/>
<path d="M243.141 378.277C243.141 378.277 251.782 397.713 267.598 404.838" stroke="#263238" stroke-width="1.63051" stroke-linecap="round" stroke-linejoin="round"/>
<path d="M375.504 481.865C375.504 481.865 467.709 497.338 474.345 484.702C475.05 483.291 475.503 481.768 475.682 480.202C477.851 464.956 464.627 434.89 464.627 434.89C454.371 433.912 443.61 436.52 435.001 439.781C428.986 441.895 423.222 444.668 417.816 448.048L418.5 449.548L418.729 450.021L397.19 450.706L377.917 451.325H377.477L375.504 481.865Z" fill="white"/>
<path opacity="0.2" d="M418.483 449.482C439.582 449.89 447.588 452.743 447.588 452.743C444.236 447.653 439.968 443.23 435 439.699C428.984 441.813 423.221 444.586 417.814 447.966L418.483 449.482Z" fill="#92E3A9"/>
<path opacity="0.2" d="M375.504 481.863C375.504 481.863 467.709 497.337 474.345 484.701C475.05 483.29 475.503 481.767 475.682 480.2C473.412 481.128 471.005 481.679 468.557 481.831C456.491 482.255 395.641 474.738 395.641 474.738L397.173 450.705V449.922C391.336 450.215 384.912 450.656 377.852 451.324H377.412L375.504 481.863Z" fill="#92E3A9"/>
<path d="M375.504 481.865C375.504 481.865 467.709 497.338 474.345 484.702C475.05 483.291 475.503 481.768 475.682 480.202C477.851 464.956 464.627 434.89 464.627 434.89C454.371 433.912 443.61 436.52 435.001 439.781C428.986 441.895 423.222 444.668 417.816 448.048L418.5 449.548L418.729 450.021L397.19 450.706L377.917 451.325H377.477L375.504 481.865Z" stroke="#263238" stroke-width="1.63051" stroke-linecap="round" stroke-linejoin="round"/>
<path d="M418.713 450.021C418.713 450.021 440.496 449.434 449.774 453.689" stroke="#263238" stroke-width="1.63051" stroke-linecap="round" stroke-linejoin="round"/>
<path d="M347.475 344.949C343.98 350.478 339.057 354.96 333.225 357.922C327.393 360.884 320.869 362.215 314.343 361.776C295.38 360.83 282.418 346.449 282.418 346.449C289.233 340.922 290.244 327.551 289.772 318.73C289.772 318.518 289.772 318.339 289.772 318.143C289.772 317.573 289.772 317.002 289.657 316.513C289.357 312.773 288.774 309.061 287.913 305.409L344.638 308.165C342.555 313.661 341.302 319.436 340.921 325.301C340.776 327.87 340.924 330.446 341.361 332.981C341.361 333.079 341.361 333.16 341.361 333.226C342.975 341.737 347.475 344.949 347.475 344.949Z" fill="white" stroke="#263238" stroke-width="1.63051" stroke-miterlimit="10"/>
<path d="M220.605 474.2V480.266C220.605 481.182 220.97 482.062 221.618 482.71C222.266 483.358 223.145 483.722 224.062 483.722H406.777C407.693 483.722 408.573 483.358 409.221 482.71C409.869 482.062 410.233 481.182 410.233 480.266V474.2H220.605Z" fill="#757575" stroke="#263238" stroke-width="1.63051" stroke-linecap="round" stroke-linejoin="round"/>
<path d="M432.669 384.963L409.124 472.847C408.846 473.747 408.372 474.574 407.734 475.268C407.097 475.962 406.313 476.505 405.439 476.858C404.839 477.103 404.197 477.23 403.548 477.233H227.29C226.642 477.23 225.999 477.103 225.399 476.858C224.531 476.501 223.754 475.956 223.122 475.263C222.491 474.569 222.021 473.744 221.746 472.847L198.169 384.963C197.981 384.454 197.923 383.905 198 383.368C198.077 382.831 198.287 382.321 198.611 381.886C198.935 381.45 199.362 381.102 199.855 380.874C200.347 380.645 200.889 380.543 201.43 380.577H429.457C429.994 380.551 430.53 380.66 431.016 380.892C431.501 381.124 431.922 381.473 432.24 381.907C432.558 382.342 432.764 382.848 432.839 383.381C432.913 383.914 432.855 384.458 432.669 384.963Z" fill="#BFBFBF" stroke="#263238" stroke-width="1.63051" stroke-miterlimit="10"/>
<path d="M428.823 389.561L405.442 476.891C404.841 477.136 404.199 477.263 403.55 477.266H227.292C226.644 477.263 226.002 477.136 225.401 476.891L202.003 389.561C201.815 389.052 201.757 388.504 201.834 387.967C201.911 387.429 202.121 386.92 202.445 386.484C202.769 386.049 203.196 385.701 203.689 385.472C204.181 385.244 204.723 385.142 205.264 385.175H425.562C426.104 385.142 426.645 385.244 427.138 385.472C427.63 385.701 428.058 386.049 428.382 386.484C428.705 386.92 428.915 387.429 428.993 387.967C429.07 388.504 429.011 389.052 428.823 389.561Z" fill="#999999" stroke="#263238" stroke-width="1.63051" stroke-linecap="round" stroke-linejoin="round"/>
<path d="M327.357 438.703C322.139 438.703 317.916 435.572 317.916 431.724C317.922 430.848 318.14 429.987 318.552 429.213C317.519 429.023 316.472 428.925 315.421 428.92C308.117 428.92 302.182 433.306 302.182 438.703C302.182 444.1 308.117 448.486 315.421 448.486C322.726 448.486 328.661 444.116 328.661 438.703C328.237 438.605 327.732 438.703 327.357 438.703Z" fill="#BFBFBF" stroke="#263238" stroke-width="1.63051" stroke-miterlimit="10"/>
<path d="M344.637 308.165C342.554 313.661 341.301 319.437 340.919 325.302C334.756 331.481 327.207 336.063 318.875 334.759C306.825 332.867 296.798 323.965 289.624 316.432C289.323 312.692 288.74 308.98 287.879 305.328L344.637 308.165Z" fill="#263238"/>
<path d="M356.198 266.914C356.198 266.914 360.78 262.023 363.03 263.653C364.548 264.897 365.695 266.534 366.345 268.386C366.995 270.238 367.123 272.234 366.715 274.154C365.492 278.377 360.193 285.73 359.753 290.018C359.312 294.307 356.589 299.182 353.573 296.345C350.556 293.508 356.198 266.914 356.198 266.914Z" fill="white" stroke="#263238" stroke-width="1.63051" stroke-miterlimit="10"/>
<path d="M274.641 266.914C274.641 266.914 270.06 262.023 267.81 263.653C266.291 264.897 265.144 266.534 264.494 268.386C263.844 270.238 263.716 272.234 264.125 274.154C265.364 278.377 270.647 285.73 271.087 290.018C271.527 294.307 274.25 299.182 277.267 296.345C280.283 293.508 274.641 266.914 274.641 266.914Z" fill="white" stroke="#263238" stroke-width="1.63051" stroke-miterlimit="10"/>
<path d="M314.457 209.423C372.014 209.423 358.334 286.057 347.736 310.694C344.019 319.352 324.746 330.684 315.419 330.684C306.745 330.684 286.918 317.134 283.396 309.014C272.684 284.279 259.591 209.423 314.457 209.423Z" fill="white" stroke="#263238" stroke-width="1.63051" stroke-miterlimit="10"/>
<path d="M324.209 270.664C324.209 270.664 338.884 267.958 343.775 273.746" stroke="#263238" stroke-width="1.63051" stroke-linecap="round" stroke-linejoin="round"/>
<path d="M335.312 281.638C335.312 283.415 334.415 284.899 333.306 284.899C332.198 284.899 331.301 283.464 331.301 281.638C331.301 279.812 332.198 278.377 333.306 278.377C334.415 278.377 335.312 279.877 335.312 281.638Z" fill="#263238"/>
<path d="M306.631 270.664C306.631 270.664 293.097 269.458 287.064 273.746" stroke="#263238" stroke-width="1.63051" stroke-linecap="round" stroke-linejoin="round"/>
<path d="M295.529 281.638C295.529 283.415 296.426 284.899 297.535 284.899C298.644 284.899 299.54 283.464 299.54 281.638C299.54 279.812 298.644 278.377 297.535 278.377C296.426 278.377 295.529 279.877 295.529 281.638Z" fill="#263238"/>
<path d="M338.28 229.021C323.857 233.637 308.353 233.637 293.93 229.021C293.93 229.021 286.152 228.581 283.087 232.478C280.022 236.374 283.087 248.44 283.902 253.348C284.717 258.256 277.168 261.664 278.179 274.072L275.26 278.344C275.26 278.344 267.108 258.386 269.179 241.217C271.249 224.048 282.06 217.379 282.06 217.379C282.06 217.379 286.951 202.541 315.974 202.704C347.182 202.835 350.345 219.727 350.345 219.727C350.345 219.727 371.542 233.831 355.856 279.827L352.449 274.121C353.259 268.021 351.86 261.832 348.503 256.674C345.78 252.696 350.133 240.728 349.106 234.597C348.079 228.466 338.28 229.021 338.28 229.021Z" fill="#263238"/>
<path d="M318.845 278.44C318.845 278.44 319.709 291.484 322.253 296.506C324.797 301.528 315.91 302.327 312.111 299.376" stroke="#263238" stroke-width="1.63051" stroke-linecap="round" stroke-linejoin="round"/>
<path d="M304.348 309.878C304.348 311.867 310.87 314.378 317.392 314.378C323.914 314.378 328.707 311.671 327.745 310.677" stroke="#263238" stroke-width="1.63051" stroke-linecap="round" stroke-linejoin="round"/>
<path d="M355.448 237.419C355.448 237.419 347.002 248.832 327.827 256.838V251.359C327.827 251.359 310.495 261.371 294.874 259.838L298.413 252.729C298.413 252.729 285.238 266.67 274.102 266.132C262.965 265.594 259.737 202.656 315.908 202.656C361.627 202.656 355.448 237.419 355.448 237.419Z" fill="#263238"/>
<path d="M346.056 241.217C346.056 241.217 343.056 257.865 358.741 270.061C358.741 270.061 368.051 260.05 364.464 241.217C360.877 222.385 352.692 221.749 352.692 221.749L346.056 241.217Z" fill="#263238"/>
<path opacity="0.2" d="M339.144 215.227C339.144 215.227 333.29 240.092 311.768 252.728" stroke="white" stroke-width="1.63051" stroke-miterlimit="10"/>
<path opacity="0.2" d="M325.365 215.227C325.365 215.227 315.827 239.684 280.363 243.76" stroke="white" stroke-width="1.63051" stroke-miterlimit="10"/>
<path opacity="0.2" d="M347.476 224.375C347.476 224.375 347.623 237.24 339.062 243.762" stroke="white" stroke-width="1.63051" stroke-miterlimit="10"/>
<path d="M553.312 32.219L569.503 0.81543" stroke="#263238" stroke-width="1.63051" stroke-linecap="round" stroke-linejoin="round"/>
<path d="M569.502 49.2577L605.927 27.3926" stroke="#263238" stroke-width="1.63051" stroke-linecap="round" stroke-linejoin="round"/>
<path d="M584.568 75.4752L616.184 73.4697" stroke="#263238" stroke-width="1.63051" stroke-linecap="round" stroke-linejoin="round"/>
<path d="M65.953 508.996H40.7617V487.326C40.7617 486.37 41.1414 485.454 41.8171 484.778C42.4929 484.102 43.4094 483.723 44.3651 483.723H586.508C587.464 483.723 588.381 484.102 589.056 484.778C589.732 485.454 590.112 486.37 590.112 487.326V508.996" fill="white"/>
<path d="M65.953 508.996H40.7617V487.326C40.7617 486.37 41.1414 485.454 41.8171 484.778C42.4929 484.102 43.4094 483.723 44.3651 483.723H586.508C587.464 483.723 588.381 484.102 589.056 484.778C589.732 485.454 590.112 486.37 590.112 487.326V508.996" stroke="#263238" stroke-width="1.63051" stroke-miterlimit="10"/>
<path d="M560.81 508.995H335.311" stroke="#263238" stroke-width="1.63051" stroke-miterlimit="10"/>
<path d="M319.154 508.995H302.963" stroke="#263238" stroke-width="1.63051" stroke-miterlimit="10"/>
<path d="M198.007 508.995H78.9961" stroke="#263238" stroke-width="1.63051" stroke-miterlimit="10"/>
</g>
<defs>
<clipPath id="clip0_503_4886">
<rect width="617" height="509.81" fill="white"/>
</clipPath>
</defs>
</svg>
